<?xml version="1.0" standalone="no"?>
  <!DOCTYPE svg PUBLIC "-//W3C//DTD SVG 1.1//EN" "http://www.w3.org/Graphics/SVG/1.1/DTD/svg11.dtd" >
  <svg>
  <metadata>
  Created by font-carrier
  </metadata>
  <defs>
  <font id="Akrobat-SemiBold" horiz-adv-x="845" vert-adv-y="845" >
    <font-face
      
      font-family="Akrobat SemiBold"
      
      font-weight="400"
      
      font-stretch="normal"
      
      units-per-em="1000"
      
      ascent="1000"
      
      descent="-200"
      
    />
      <missing-glyph />

      

      
      <glyph glyph-name="uni21" unicode="&#x21;" d="M78 156L78 700L157 700L157 156L78 156M118-11Q93-11 78.50 4Q64 19 64 44Q64 68 78.50 83Q93 98 118 98Q142 98 157 83Q172 68 172 44Q172 19 157 4Q142-11 118-11Z"  horiz-adv-x="235" vert-adv-y="1000"  />

      
      <glyph glyph-name="uni22" unicode="&#x22;" d="M39 700L121 700L69 478L18 478L39 700M154 700L236 700L184 478L133 478L154 700Z"  horiz-adv-x="254" vert-adv-y="1000"  />

      
      <glyph glyph-name="uni23" unicode="&#x23;" d="M91 0L133 184L12 184L27 246L147 246L193 444L71 444L85 505L207 505L251 700L323 700L278 505L385 505L430 700L503 700L458 505L580 505L566 444L444 444L398 246L521 246L506 184L385 184L343 0L270 0L312 184L205 184L163 0L91 0M219 246L326 246L371 444L264 444L219 246Z"  horiz-adv-x="592" vert-adv-y="1000"  />

      
      <glyph glyph-name="uni24" unicode="&#x24;" d="M425 178Q425 105 379.50 51Q334-3 255-12L255-85L192-85L192-10Q117 1 73.50 53Q30 105 29 186L112 186Q113 128 144 97Q175 66 228 66Q283 66 312 97Q341 128 341 179Q341 220 310 253.50Q279 287 234.50 312.50Q190 338 146 366Q102 394 71 438Q40 482 40 539Q40 606 81.50 653Q123 700 192 710L192 785L255 785L255 711Q328 703 370.50 652Q413 601 416 521L333 521Q331 577 303 605.50Q275 634 228 634Q179 634 151 608Q123 582 123 538Q123 503 145.50 474Q168 445 201.50 426Q235 407 274 382.50Q313 358 346.50 333.50Q380 309 402.50 268.50Q425 228 425 178Z"  horiz-adv-x="458" vert-adv-y="1000"  />

      
      <glyph glyph-name="uni25" unicode="&#x25;" d="M112 391Q67 391 39.50 419.50Q12 448 12 500L12 600Q12 652 39.50 681Q67 710 112 710Q156 710 183.50 681Q211 652 211 600L211 500Q211 448 183.50 419.50Q156 391 112 391M23 0L486 700L552 700L89 0L23 0M112 444Q154 444 154 499L154 601Q154 657 112 657Q69 657 69 601L69 499Q69 444 112 444M460-9Q415-9 387.50 19.50Q360 48 360 100L360 200Q360 252 387.50 281Q415 310 460 310Q504 310 531.50 281Q559 252 559 200L559 100Q559 48 531.50 19.50Q504-9 460-9M460 44Q502 44 502 99L502 201Q502 257 460 257Q417 257 417 201L417 99Q417 44 460 44Z"  horiz-adv-x="575" vert-adv-y="1000"  />

      
      <glyph glyph-name="uni26" unicode="&#x26;" d="M548 0L459 0Q443 25 409 73Q335-13 240-13Q169-13 121 33Q73 79 73 159Q73 224 104.50 275Q136 326 192 378Q117 498 117 568Q117 629 155 671Q193 713 263 713Q336 713 373 668.50Q410 624 408 561Q407 506 376.50 461Q346 416 291 365Q305 345 404 207Q421 245 434 284L517 284Q490 199 454 137Q511 56 548 0M194 566Q194 521 249 430Q289 467 310.50 497.50Q332 528 332 562Q332 594 313.50 617Q295 640 263 640Q231 640 212.50 619.50Q194 599 194 566M246 63Q308 63 362 138Q256 284 236 313Q156 235 156 166Q156 120 181.50 91.50Q207 63 246 63Z"  horiz-adv-x="580" vert-adv-y="1000"  />

      
      <glyph glyph-name="uni27" unicode="&#x27;" d="M39 700L121 700L69 478L18 478L39 700Z"  horiz-adv-x="139" vert-adv-y="1000"  />

      
      <glyph glyph-name="uni28" unicode="&#x28;" d="M235-121Q161-118 117-70.50Q73-23 73 55L73 645Q73 722 117 769.50Q161 817 235 820L235 746Q197 744 174.50 717.50Q152 691 152 648L152 52Q152 8 174-18Q196-44 235-47L235-121Z"  horiz-adv-x="284" vert-adv-y="1000"  />

      
      <glyph glyph-name="uni29" unicode="&#x29;" d="M49-121L49-47Q88-44 110-18Q132 8 132 52L132 648Q132 691 109.50 717.50Q87 744 49 746L49 820Q123 817 167 769.50Q211 722 211 645L211 55Q211-23 167-70.50Q123-118 49-121Z"  horiz-adv-x="284" vert-adv-y="1000"  />

      
      <glyph glyph-name="uni2a" unicode="&#x2a;" d="M99 488L54 520L104 590L24 616L40 669L122 642L122 727L177 727L177 642L258 668L275 616L193 590L244 520L199 487L149 557L99 488Z"  horiz-adv-x="299" vert-adv-y="1000"  />

      
      <glyph glyph-name="uni2b" unicode="&#x2b;" d="M407 346L407 273L263 273L263 125L189 125L189 273L45 273L45 346L189 346L189 494L263 494L263 346L407 346Z"  horiz-adv-x="452" vert-adv-y="1000"  />

      
      <glyph glyph-name="uni2c" unicode="&#x2c;" d="M49 89L131 89L79-133L28-133L49 89Z"  horiz-adv-x="159" vert-adv-y="1000"  />

      
      <glyph glyph-name="uni2d" unicode="&#x2d;" d="M42 222L42 293L285 293L285 222L42 222Z"  horiz-adv-x="327" vert-adv-y="1000"  />

      
      <glyph glyph-name="uni2e" unicode="&#x2e;" d="M133 4Q133 4 125.50-3.50Q118-11 94-11Q70-11 55 4Q40 19 40 44Q40 68 55 83Q70 98 94 98Q118 98 133 83Q148 68 148 44Q148 19 133 4Z"  horiz-adv-x="188" vert-adv-y="1000"  />

      
      <glyph glyph-name="uni2f" unicode="&#x2f;" d="M333 812L407 812L82-117L9-117L333 812Z"  horiz-adv-x="415" vert-adv-y="1000"  />

      
      <glyph glyph-name="uni30" unicode="&#x30;" d="M361.50 41.50Q361.50 41.50 337.25 15.75Q313-10 232-10Q151-10 102.50 41.50Q54 93 54 179L54 520Q54 607 102.50 658.50Q151 710 232 710Q313 710 361.50 658.50Q410 607 410 520L410 179Q410 93 361.50 41.50M157.50 95Q157.50 95 170.75 80Q184 65 232 65Q280 65 306.50 95Q333 125 333 179L333 520Q333 575 306.50 605Q280 635 232 635Q184 635 157.50 605Q131 575 131 520L131 179Q131 125 157.50 95Z"  horiz-adv-x="464" vert-adv-y="1000"  />

      
      <glyph glyph-name="uni31" unicode="&#x31;" d="M148 700L214 700L214 4L136 4L136 594L25 510L25 603L148 700Z"  horiz-adv-x="288" vert-adv-y="1000"  />

      
      <glyph glyph-name="uni32" unicode="&#x32;" d="M30 0L30 59Q30 124 57.50 183Q85 242 123.50 286.50Q162 331 201 372Q240 413 267.50 457.50Q295 502 295 545Q295 585 270.50 611Q246 637 203 637Q161 637 137 609.50Q113 582 112 529L35 529Q40 613 84.50 662Q129 711 203 711Q282 711 328 663.50Q374 616 374 547Q374 501 354.50 456.50Q335 412 306 377.50Q277 343 242.50 304.50Q208 266 179 232.50Q150 199 130.50 157Q111 115 111 74L380 74L380 0L30 0Z"  horiz-adv-x="412" vert-adv-y="1000"  />

      
      <glyph glyph-name="uni33" unicode="&#x33;" d="M207 416Q287 415 328.50 366.50Q370 318 370 238L370 190Q370 93 324 41Q278-11 194-11Q114-11 65.50 40Q17 91 16 188L95 188Q100 66 193 66Q292 66 292 191L292 237Q292 351 183 351L120 351L120 410L255 628L40 628L40 701L354 701L354 646L207 416Z"  horiz-adv-x="414" vert-adv-y="1000"  />

      
      <glyph glyph-name="uni34" unicode="&#x34;" d="M418 254L418 180L336 180L336 0L259 0L259 180L10 180L10 223L163 700L244 700L99 254L260 254L264 506L336 506L336 254L418 254Z"  horiz-adv-x="420" vert-adv-y="1000"  />

      
      <glyph glyph-name="uni35" unicode="&#x35;" d="M226 471Q298 471 339.50 420Q381 369 381 277L381 206Q381 98 338 43.50Q295-11 216-11Q140-11 95 37Q50 85 47 172L126 172Q130 66 216 66Q259 66 280 98Q301 130 301 206L301 277Q301 339 280.50 367.50Q260 396 216 396Q146 396 130 325L53 325L53 700L360 700L360 628L132 628L132 438Q172 471 226 471Z"  horiz-adv-x="415" vert-adv-y="1000"  />

      
      <glyph glyph-name="uni36" unicode="&#x36;" d="M236 460Q304 460 351 411Q398 362 398 286L398 170Q398 88 349.50 38.50Q301-11 227-11Q152-11 103 38.50Q54 88 54 170L54 534Q54 613 102 662Q150 711 225 711Q296 711 343 663.50Q390 616 394 538L315 538Q312 583 287 608.50Q262 634 225 634Q184 634 158.50 608Q133 582 133 535L133 418Q173 460 236 460M319 170L319 284Q319 331 292 358Q265 385 223 385Q184 385 158.50 357.50Q133 330 133 282L133 170Q133 121 159.50 93.50Q186 66 227 66Q267 66 293 93.50Q319 121 319 170Z"  horiz-adv-x="438" vert-adv-y="1000"  />

      
      <glyph glyph-name="uni37" unicode="&#x37;" d="M-2 701L334 701L334 651L143-2L60-2L244 626L-2 626L-2 701Z"  horiz-adv-x="361" vert-adv-y="1000"  />

      
      <glyph glyph-name="uni38" unicode="&#x38;" d="M329 363Q369 342 391 300Q413 258 413 204L413 184Q413 93 364 41Q315-11 230-11Q144-11 95 41Q46 93 46 184L46 204Q46 258 68 300Q90 342 130 363Q58 413 58 513L58 528Q58 613 104 662Q150 711 230 711Q309 711 355 662Q401 613 401 528L401 513Q401 414 329 363M137 526L137 512Q137 457 161.50 427.50Q186 398 230 398Q274 398 298.50 427.50Q323 457 323 512L323 526Q323 578 298.50 606Q274 634 230 634Q186 634 161.50 606Q137 578 137 526M334 184L334 204Q334 261 307 292Q280 323 230 323Q180 323 152.50 292Q125 261 125 204L125 184Q125 128 152.50 97Q180 66 230 66Q280 66 307 97Q334 128 334 184Z"  horiz-adv-x="459" vert-adv-y="1000"  />

      
      <glyph glyph-name="uni39" unicode="&#x39;" d="M211 711Q286 711 335 661.50Q384 612 384 530L384 166Q384 87 336 38Q288-11 213-11Q142-11 95 36.50Q48 84 44 162L123 162Q126 117 151 91.50Q176 66 213 66Q254 66 279.50 92Q305 118 305 165L305 282Q265 240 202 240Q134 240 87 289Q40 338 40 414L40 530Q40 612 88.50 661.50Q137 711 211 711M215 315Q254 315 279.50 342.50Q305 370 305 418L305 530Q305 579 278.50 606.50Q252 634 211 634Q171 634 145 606.50Q119 579 119 530L119 416Q119 369 146 342Q173 315 215 315Z"  horiz-adv-x="438" vert-adv-y="1000"  />

      
      <glyph glyph-name="uni3a" unicode="&#x3a;" d="M131 349Q131 349 123.50 341.50Q116 334 92 334Q68 334 53 349Q38 364 38 389Q38 413 53 428Q68 443 92 443Q116 443 131 428Q146 413 146 389Q146 364 131 349M131 4Q131 4 123.50-3.50Q116-11 92-11Q68-11 53 4Q38 19 38 44Q38 68 53 83Q68 98 92 98Q116 98 131 83Q146 68 146 44Q146 19 131 4Z"  horiz-adv-x="179" vert-adv-y="1000"  />

      
      <glyph glyph-name="uni3b" unicode="&#x3b;" d="M87 335Q62 335 47.50 350Q33 365 33 389Q33 413 47.50 428Q62 443 87 443Q111 443 126 428Q141 413 141 389Q141 365 126 350Q111 335 87 335M49 89L131 89L79-133L28-133L49 89Z"  horiz-adv-x="169" vert-adv-y="1000"  />

      
      <glyph glyph-name="uni3c" unicode="&#x3c;" d="M377 485L377 409L125 306L377 202L377 127L45 265L45 347L377 485Z"  horiz-adv-x="422" vert-adv-y="1000"  />

      
      <glyph glyph-name="uni3d" unicode="&#x3d;" d="M45 350L45 423L407 423L407 350L45 350M45 185L45 258L407 258L407 185L45 185Z"  horiz-adv-x="452" vert-adv-y="1000"  />

      
      <glyph glyph-name="uni3e" unicode="&#x3e;" d="M45 485L377 347L377 265L45 127L45 202L297 306L45 409L45 485Z"  horiz-adv-x="422" vert-adv-y="1000"  />

      
      <glyph glyph-name="uni3f" unicode="&#x3f;" d="M135 156L135 210Q135 258 149.50 296.50Q164 335 185 361Q206 387 227.50 411.50Q249 436 263.50 467.50Q278 499 278 537Q278 582 252.50 610Q227 638 184 638Q142 638 116 608.50Q90 579 89 526L11 526Q15 611 62 661Q109 711 184 711Q259 711 307.50 662.50Q356 614 356 537Q356 491 341.50 453.50Q327 416 306 390Q285 364 264 339Q243 314 228.50 280Q214 246 214 205L214 156L135 156M215 4Q215 4 207.50-3.50Q200-11 176-11Q152-11 137 4Q122 19 122 44Q122 68 137 83Q152 98 176 98Q200 98 215 83Q230 68 230 44Q230 19 215 4Z"  horiz-adv-x="384" vert-adv-y="1000"  />

      
      <glyph glyph-name="uni40" unicode="&#x40;" d="M398 731Q556 731 643 646Q730 561 730 401L730 293Q730 205 687.50 159Q645 113 582 113Q510 112 480 168Q449 106 376 106Q319 106 283.50 145Q248 184 248 256L248 367Q248 440 282.50 478Q317 516 373 516Q437 516 466 467L473 505L526 505L526 240Q526 178 582 177Q663 177 663 293L663 401Q663 532 594.50 599Q526 666 398 666Q264 666 190.50 593Q117 520 117 387L117 261Q117 118 191 39.50Q265-39 397-39Q525-39 602 15L635-40Q547-104 400-104Q236-104 142.50-7.50Q49 89 49 261L49 387Q49 549 141.50 640Q234 731 398 731M386 172Q420 172 440 193.50Q460 215 460 258L460 366Q460 402 440.50 426.50Q421 451 384 451Q317 451 317 368L317 257Q317 172 386 172Z"  horiz-adv-x="779" vert-adv-y="1000"  />

      
      <glyph glyph-name="uni41" unicode="&#x41;" d="M372 0L335 152L132 152L95 0L9 0L189 700L278 700L458 0L372 0M150 228L317 228L260 465Q246 523 235 596L232 596Q221 523 207 465L150 228Z"  horiz-adv-x="467" vert-adv-y="1000"  />

      
      <glyph glyph-name="uni42" unicode="&#x42;" d="M358 361Q408 345 436 302Q464 259 464 196Q464 103 410.50 51.50Q357 0 264 0L73 0L73 700L251 700Q338 700 387.50 650.50Q437 601 437 514Q437 458 416 418Q395 378 358 361M245 623L155 623L155 396L247 396Q353 396 353 512Q353 623 245 623M257 77Q381 77 381 196Q381 256 346 287.50Q311 319 250 319L155 319L155 77L257 77Z"  horiz-adv-x="500" vert-adv-y="1000"  />

      
      <glyph glyph-name="uni43" unicode="&#x43;" d="M251-12Q161-12 107.50 44Q54 100 54 202L54 498Q54 600 107 656.50Q160 713 249 713Q340 713 392.50 659Q445 605 450 504L369 504Q360 636 248 636Q196 636 166 601Q136 566 136 498L136 202Q136 134 167 99.50Q198 65 251 65Q362 65 374 196L455 196Q449 96 396 42Q343-12 251-12Z"  horiz-adv-x="486" vert-adv-y="1000"  />

      
      <glyph glyph-name="uni44" unicode="&#x44;" d="M73 0L73 700L239 700Q340 700 395.50 644Q451 588 451 488L451 212Q451 112 395 56Q339 0 240 0L73 0M155 78L240 78Q302 78 335.50 112.50Q369 147 369 215L369 486Q369 553 336 587.50Q303 622 240 622L155 622L155 78Z"  horiz-adv-x="505" vert-adv-y="1000"  />

      
      <glyph glyph-name="uni45" unicode="&#x45;" d="M155 77L419 77L419 0L73 0L73 700L408 700L408 624L155 624L155 393L390 393L390 318L155 318L155 77Z"  horiz-adv-x="458" vert-adv-y="1000"  />

      
      <glyph glyph-name="uni46" unicode="&#x46;" d="M397 624L155 624L155 386L379 386L379 310L155 310L155 0L73 0L73 700L397 700L397 624Z"  horiz-adv-x="423" vert-adv-y="1000"  />

      
      <glyph glyph-name="uni47" unicode="&#x47;" d="M255-11Q163-11 108.50 46Q54 103 54 205L54 496Q54 600 106.50 655.50Q159 711 251 711Q341 711 393.50 657.50Q446 604 450 504L369 504Q363 633 251 633Q136 633 136 495L136 205Q136 137 168 102Q200 67 255 67Q311 67 343.50 100.50Q376 134 376 198L376 304L253 304L253 377L455 377L455 198Q454 100 400 44.50Q346-11 255-11Z"  horiz-adv-x="501" vert-adv-y="1000"  />

      
      <glyph glyph-name="uni48" unicode="&#x48;" d="M378 700L461 700L461 0L378 0L378 317L156 317L156 0L73 0L73 700L156 700L156 394L378 394L378 700Z"  horiz-adv-x="534" vert-adv-y="1000"  />

      
      <glyph glyph-name="uni49" unicode="&#x49;" d="M73 700L155 700L155 0L73 0L73 700Z"  horiz-adv-x="229" vert-adv-y="1000"  />

      
      <glyph glyph-name="uni4a" unicode="&#x4a;" d="M0-99L0-20Q59-20 87 10.50Q115 41 115 115L115 700L197 700L197 114Q197-99 0-99Z"  horiz-adv-x="266" vert-adv-y="1000"  />

      
      <glyph glyph-name="uni4b" unicode="&#x4b;" d="M397 0L203 324L155 254L155 0L73 0L73 700L155 700L155 380L207 464L365 700L464 700L252 395L492 0L397 0Z"  horiz-adv-x="492" vert-adv-y="1000"  />

      
      <glyph glyph-name="uni4c" unicode="&#x4c;" d="M155 78L399 78L399 0L73 0L73 700L155 700L155 78Z"  horiz-adv-x="407" vert-adv-y="1000"  />

      
      <glyph glyph-name="uni4d" unicode="&#x4d;" d="M512 700L597 700L597 0L516 0L516 321Q518 441 523 533L519 534Q508 503 481.50 434Q455 365 449 350L376 161L295 161L221 350Q211 377 186.50 441Q162 505 152 534L147 533Q154 414 154 321L154 0L73 0L73 700L159 700L280 407Q313 326 333 260L337 260Q363 337 391 407L512 700Z"  horiz-adv-x="671" vert-adv-y="1000"  />

      
      <glyph glyph-name="uni4e" unicode="&#x4e;" d="M393 700L474 700L474 0L391 0L219 376Q183 457 150 546L147 545Q155 421 155 330L155 0L73 0L73 700L156 700L331 318Q365 246 401 155L404 156Q393 290 393 376L393 700Z"  horiz-adv-x="548" vert-adv-y="1000"  />

      
      <glyph glyph-name="uni4f" unicode="&#x4f;" d="M414 49.50Q414 49.50 386.50 18.25Q359-13 262-13Q165-13 109.50 49.50Q54 112 54 220L54 481Q54 589 109.50 651Q165 713 262 713Q359 713 414 651Q469 589 469 481L469 220Q469 112 414 49.50M262 67Q322 67 353.50 106.50Q385 146 385 220L385 481Q385 554 353.50 593.50Q322 633 262 633Q201 633 169.50 593.50Q138 554 138 481L138 220Q138 146 169.50 106.50Q201 67 262 67Z"  horiz-adv-x="523" vert-adv-y="1000"  />

      
      <glyph glyph-name="uni50" unicode="&#x50;" d="M250 700Q350 700 404 642.50Q458 585 458 479Q458 371 404 313Q350 255 250 255L155 255L155 0L73 0L73 700L250 700M250 333Q375 333 375 479Q375 622 250 622L155 622L155 333L250 333Z"  horiz-adv-x="491" vert-adv-y="1000"  />

      
      <glyph glyph-name="uni51" unicode="&#x51;" d="M470 481L470 220Q470 110 413 48L469-20L418-65L358 7Q316-13 262-13Q165-13 109.50 49.50Q54 112 54 220L54 481Q54 589 109.50 651Q165 713 262 713Q359 713 414.50 651Q470 589 470 481M295 190L359 113Q385 153 385 220L385 481Q385 554 353.50 593.50Q322 633 262 633Q201 633 169.50 593.50Q138 554 138 481L138 220Q138 146 169.50 106.50Q201 67 262 67Q286 67 304 73L245 145L295 190Z"  horiz-adv-x="524" vert-adv-y="1000"  />

      
      <glyph glyph-name="uni52" unicode="&#x52;" d="M379 0L226 264L155 264L155 0L73 0L73 700L244 700Q343 700 396 644.50Q449 589 449 488Q449 402 412.50 346.50Q376 291 310 272L472 0L379 0M155 623L155 341L243 341Q303 341 334.50 378Q366 415 366 485Q366 623 244 623L155 623Z"  horiz-adv-x="494" vert-adv-y="1000"  />

      
      <glyph glyph-name="uni53" unicode="&#x53;" d="M229-13Q139-13 84.50 41Q30 95 29 186L112 186Q113 128 144 97Q175 66 228 66Q283 66 312 97Q341 128 341 179Q341 220 310 253.50Q279 287 234.50 312.50Q190 338 146 366Q102 394 71 438Q40 482 40 539Q40 614 91.50 663.50Q143 713 227 713Q312 713 362.50 660.50Q413 608 416 521L333 521Q331 577 303 605.50Q275 634 228 634Q179 634 151 608Q123 582 123 538Q123 503 145.50 474Q168 445 201.50 426Q235 407 274 382.50Q313 358 346.50 333.50Q380 309 402.50 268.50Q425 228 425 178Q425 99 372.50 43Q320-13 229-13Z"  horiz-adv-x="458" vert-adv-y="1000"  />

      
      <glyph glyph-name="uni54" unicode="&#x54;" d="M400 700L400 623L250 623L250 0L167 0L167 623L17 623L17 700L400 700Z"  horiz-adv-x="417" vert-adv-y="1000"  />

      
      <glyph glyph-name="uni55" unicode="&#x55;" d="M406 48Q406 48 379 19Q352-10 261-10Q170-10 116 48Q62 106 62 212L62 700L146 700L146 212Q146 141 176.50 105.50Q207 70 261 70Q315 70 346 105.50Q377 141 377 212L377 700L460 700L460 212Q460 106 406 48Z"  horiz-adv-x="522" vert-adv-y="1000"  />

      
      <glyph glyph-name="uni56" unicode="&#x56;" d="M184 0L9 700L95 700L190 289Q198 252 210.50 191Q223 130 228 107L232 107Q255 222 270 289L364 700L451 700L276 0L184 0Z"  horiz-adv-x="460" vert-adv-y="1000"  />

      
      <glyph glyph-name="uni57" unicode="&#x57;" d="M638 700L723 700L567 0L478 0L402 344Q379 446 368 567L364 567Q353 446 330 344L254 0L165 0L9 700L95 700L174 293Q201 155 207 111L211 111Q216 139 245 301L322 689L410 689L487 301Q516 139 521 111L525 111Q531 155 558 293L638 700Z"  horiz-adv-x="732" vert-adv-y="1000"  />

      
      <glyph glyph-name="uni58" unicode="&#x58;" d="M446 0L355 0L232 282L109 0L18 0L186 364L27 700L118 700L232 442L346 700L437 700L278 364L446 0Z"  horiz-adv-x="463" vert-adv-y="1000"  />

      
      <glyph glyph-name="uni59" unicode="&#x59;" d="M176 0L176 240L4 700L90 700L179 449Q199 394 217 340L218 340Q238 400 256 451L345 700L431 700L258 240L258 0L176 0Z"  horiz-adv-x="435" vert-adv-y="1000"  />

      
      <glyph glyph-name="uni5a" unicode="&#x5a;" d="M117 77L387 77L387 0L18 0L18 59L282 623L32 623L32 700L382 700L382 644L117 77Z"  horiz-adv-x="415" vert-adv-y="1000"  />

      
      <glyph glyph-name="uni5b" unicode="&#x5b;" d="M238 747L152 747L152-47L238-47L238-120L73-120L73 820L238 820L238 747Z"  horiz-adv-x="287" vert-adv-y="1000"  />

      
      <glyph glyph-name="uni5c" unicode="&#x5c;" d="M118 812L442-117L369-117L44 812L118 812Z"  horiz-adv-x="487" vert-adv-y="1000"  />

      
      <glyph glyph-name="uni5d" unicode="&#x5d;" d="M49-47L135-47L135 747L49 747L49 820L214 820L214-120L49-120L49-47Z"  horiz-adv-x="287" vert-adv-y="1000"  />

      
      <glyph glyph-name="uni5e" unicode="&#x5e;" d="M310 477L234 477L162 633L88 477L13 477L122 700L200 700L310 477Z"  horiz-adv-x="322" vert-adv-y="1000"  />

      
      <glyph glyph-name="uni5f" unicode="&#x5f;" d="M21-9L376-9L376-84L21-84L21-9Z"  horiz-adv-x="397" vert-adv-y="1000"  />

      
      <glyph glyph-name="uni61" unicode="&#x61;" d="M223 539Q302 539 345.50 491Q389 443 389 357L389 0L324 0L318 50Q278-13 198-13Q125-13 79.50 31Q34 75 34 150Q34 227 83.50 268.50Q133 310 220 310L310 310L310 356Q310 463 221 463Q182 463 157 442Q132 421 129 382L50 382Q53 454 100 496.50Q147 539 223 539M310 153L310 240L219 240Q168 240 141 216.50Q114 193 114 149Q114 106 140.50 83Q167 60 213 60Q258 60 284 85.50Q310 111 310 153Z"  horiz-adv-x="451" vert-adv-y="1000"  />

      
      <glyph glyph-name="uni62" unicode="&#x62;" d="M250 539Q327 539 371.50 487Q416 435 416 339L416 191Q416 95 370.50 41.50Q325-12 250-12Q214-12 181.50 4.50Q149 21 129 49L121 0L62 0L62 724L139 724L139 489Q183 539 250 539M336 191L336 339Q336 465 236 465Q191 465 165 430.50Q139 396 139 339L139 190Q139 127 166 94.50Q193 62 236 62Q336 62 336 191Z"  horiz-adv-x="465" vert-adv-y="1000"  />

      
      <glyph glyph-name="uni63" unicode="&#x63;" d="M223-11Q143-11 96 39.50Q49 90 49 180L49 349Q49 439 96 489Q143 539 223 539Q305 539 351.50 489.50Q398 440 401 349L321 349Q318 463 223 463Q129 463 129 349L129 180Q129 66 223 66Q319 66 323 180L402 180Q400 89 352.50 39Q305-11 223-11Z"  horiz-adv-x="435" vert-adv-y="1000"  />

      
      <glyph glyph-name="uni64" unicode="&#x64;" d="M326 724L403 724L403 0L344 0L336 49Q316 21 283.50 4.50Q251-12 215-12Q140-12 94.50 41.50Q49 95 49 191L49 339Q49 435 93.50 487Q138 539 215 539Q282 539 326 489L326 724M326 190L326 339Q326 396 300 430.50Q274 465 229 465Q129 465 129 339L129 191Q129 62 229 62Q272 62 299 94.50Q326 127 326 190Z"  horiz-adv-x="465" vert-adv-y="1000"  />

      
      <glyph glyph-name="uni65" unicode="&#x65;" d="M333 163L411 163Q405 80 356.50 34.50Q308-11 224-11Q143-11 96 40Q49 91 49 182L49 347Q49 438 96.50 488.50Q144 539 225 539Q308 539 356 488.50Q404 438 404 347L404 230L129 230L129 182Q129 66 226 66Q276 66 301 89Q326 112 333 163M226 464Q129 464 129 348L129 295L326 295L326 348Q326 464 226 464Z"  horiz-adv-x="452" vert-adv-y="1000"  />

      
      <glyph glyph-name="uni66" unicode="&#x66;" d="M258 666Q169 666 169 563L169 526L277 526L277 455L169 455L169 0L91 0L91 455L12 455L12 526L91 526L91 563Q91 645 133.50 691.50Q176 738 258 738L288 738L288 666L258 666Z"  horiz-adv-x="297" vert-adv-y="1000"  />

      
      <glyph glyph-name="uni67" unicode="&#x67;" d="M345 526L405 526L405-31Q405-105 358.50-149Q312-193 233-193Q157-193 111-150.50Q65-108 61-35L138-35Q141-76 165.50-98Q190-120 233-120Q277-120 301.50-96.50Q326-73 326-31L326 60Q285 19 219 19Q142 19 95.50 70Q49 121 49 209L49 339Q49 433 95 486Q141 539 217 539Q293 539 336 479L345 526M232 93Q326 93 326 209L326 347Q326 404 300 434Q274 464 232 464Q129 464 129 339L129 209Q129 93 232 93Z"  horiz-adv-x="467" vert-adv-y="1000"  />

      
      <glyph glyph-name="uni68" unicode="&#x68;" d="M266 539Q409 539 409 319L409 0L331 0L331 315Q331 394 310 429Q289 464 245 464Q197 464 168.50 426.50Q140 389 140 322L140 0L62 0L62 721L140 721L140 467Q184 539 266 539Z"  horiz-adv-x="466" vert-adv-y="1000"  />

      
      <glyph glyph-name="uni69" unicode="&#x69;" d="M101 619Q76 619 61 634Q46 649 46 673Q46 698 61 713Q76 728 101 728Q125 728 140.50 713Q156 698 156 673Q156 650 140.50 634.50Q125 619 101 619M62 0L62 526L141 526L141 0L62 0Z"  horiz-adv-x="203" vert-adv-y="1000"  />

      
      <glyph glyph-name="uni6a" unicode="&#x6a;" d="M123 618Q98 618 83 633Q68 648 68 672Q68 697 83 712Q98 727 123 727Q147 727 162.50 712Q178 697 178 672Q178 649 162.50 633.50Q147 618 123 618M-17-193L-17-117Q37-116 60.50-88.50Q84-61 84-5L84 526L162 526L162-3Q162-93 117.50-142.50Q73-192-17-193Z"  horiz-adv-x="240" vert-adv-y="1000"  />

      
      <glyph glyph-name="uni6b" unicode="&#x6b;" d="M343 0L185 254L140 204L140 0L62 0L62 724L140 724L140 305L314 526L409 526L238 314L435 0L343 0Z"  horiz-adv-x="433" vert-adv-y="1000"  />

      
      <glyph glyph-name="uni6c" unicode="&#x6c;" d="M63 0L63 724L141 724L141 0L63 0Z"  horiz-adv-x="203" vert-adv-y="1000"  />

      
      <glyph glyph-name="uni6d" unicode="&#x6d;" d="M523 539Q589 539 626 486.50Q663 434 663 332L663 0L585 0L585 328Q585 464 505 464Q458 464 430 426Q402 388 402 322L402 0L324 0L324 328Q324 464 242 464Q196 464 168 426.50Q140 389 140 322L140 0L62 0L62 526L121 526L131 463Q173 539 259 539Q350 539 384 449Q425 539 523 539Z"  horiz-adv-x="719" vert-adv-y="1000"  />

      
      <glyph glyph-name="uni6e" unicode="&#x6e;" d="M265 539Q409 539 409 333L409 0L331 0L331 327Q331 398 310.50 431Q290 464 245 464Q197 464 168.50 426.50Q140 389 140 322L140 0L62 0L62 526L121 526L131 464Q175 539 265 539Z"  horiz-adv-x="466" vert-adv-y="1000"  />

      
      <glyph glyph-name="uni6f" unicode="&#x6f;" d="M362 39Q362 39 338 13.50Q314-12 230-12Q146-12 97.50 39Q49 90 49 183L49 344Q49 437 97.50 488Q146 539 230 539Q314 539 362 488Q410 437 410 344L410 183Q410 90 362 39M129 183Q129 64 230 64Q331 64 331 183L331 344Q331 462 230 462Q129 462 129 344L129 183Z"  horiz-adv-x="460" vert-adv-y="1000"  />

      
      <glyph glyph-name="uni70" unicode="&#x70;" d="M250 538Q325 538 370.50 484.50Q416 431 416 335L416 188Q416 92 371.50 40Q327-12 250-12Q183-12 139 38L139-180L62-180L62 527L121 527L129 478Q174 538 250 538M336 188L336 335Q336 465 236 465Q193 465 166 432Q139 399 139 337L139 188Q139 131 165 96.50Q191 62 236 62Q336 62 336 188Z"  horiz-adv-x="465" vert-adv-y="1000"  />

      
      <glyph glyph-name="uni71" unicode="&#x71;" d="M344 527L403 527L403-180L326-180L326 38Q282-12 215-12Q138-12 93.50 40Q49 92 49 188L49 335Q49 431 94.50 484.50Q140 538 215 538Q291 538 336 478L344 527M229 62Q274 62 300 96.50Q326 131 326 188L326 337Q326 399 299 432Q272 465 229 465Q129 465 129 335L129 188Q129 62 229 62Z"  horiz-adv-x="465" vert-adv-y="1000"  />

      
      <glyph glyph-name="uni72" unicode="&#x72;" d="M268 538Q300 538 322 531L322 451Q292 462 256 462Q203 462 171.50 425Q140 388 140 322L140 0L62 0L62 526L121 526L132 462Q176 538 268 538Z"  horiz-adv-x="336" vert-adv-y="1000"  />

      
      <glyph glyph-name="uni73" unicode="&#x73;" d="M210-13Q127-13 78 35Q29 83 28 159L106 159Q107 114 133.50 88Q160 62 209 62Q252 62 276 82.50Q300 103 300 139Q300 171 272.50 192.50Q245 214 206.50 228.50Q168 243 129 260Q90 277 62.50 310.50Q35 344 35 394Q35 460 80 499.50Q125 539 200 539Q278 539 322.50 494Q367 449 369 374L292 374Q291 417 267.50 441.50Q244 466 200 466Q160 466 137 446.50Q114 427 114 393Q114 363 141.50 342.50Q169 322 207.50 308.50Q246 295 285 277.50Q324 260 351.50 225Q379 190 379 138Q379 70 333 28.50Q287-13 210-13Z"  horiz-adv-x="410" vert-adv-y="1000"  />

      
      <glyph glyph-name="uni74" unicode="&#x74;" d="M253 68L284 68L284-6L251-6Q176-6 134.50 39Q93 84 93 163L93 454L15 454L15 526L93 526L93 649L171 649L171 526L273 526L273 454L171 454L171 163Q171 68 253 68Z"  horiz-adv-x="307" vert-adv-y="1000"  />

      
      <glyph glyph-name="uni75" unicode="&#x75;" d="M326 526L404 526L404 0L345 0L335 62Q291-13 201-13Q57-13 57 193L57 526L135 526L135 199Q135 128 155.50 95Q176 62 221 62Q269 62 297.50 99.50Q326 137 326 204L326 526Z"  horiz-adv-x="466" vert-adv-y="1000"  />

      
      <glyph glyph-name="uni76" unicode="&#x76;" d="M304 526L387 526L240 0L153 0L6 526L89 526L159 255Q176 183 194 97L199 97Q217 183 234 255L304 526Z"  horiz-adv-x="393" vert-adv-y="1000"  />

      
      <glyph glyph-name="uni77" unicode="&#x77;" d="M535 526L617 526L489 0L403 0L349 225Q320 344 313 419L310 419Q303 344 274 225L219 0L134 0L6 526L88 526L144 266Q147 253 176 92L179 92Q195 192 214 277L269 516L353 516L409 277Q432 165 444 92L447 92Q459 170 479 266L535 526Z"  horiz-adv-x="623" vert-adv-y="1000"  />

      
      <glyph glyph-name="uni78" unicode="&#x78;" d="M392 0L302 0L197 201L92 0L2 0L150 263L11 526L99 526L197 333L296 526L383 526L245 263L392 0Z"  horiz-adv-x="394" vert-adv-y="1000"  />

      
      <glyph glyph-name="uni79" unicode="&#x79;" d="M315 526L396 526L224-52Q204-120 174-155Q144-190 90-190L47-190L47-114L77-114Q106-114 121-95.50Q136-77 147-39L175 54L6 526L89 526L209 169L315 526Z"  horiz-adv-x="402" vert-adv-y="1000"  />

      
      <glyph glyph-name="uni7a" unicode="&#x7a;" d="M110 73L340 73L340 0L13 0L13 57L234 454L26 454L26 526L331 526L331 470L110 73Z"  horiz-adv-x="362" vert-adv-y="1000"  />

      
      <glyph glyph-name="uni7b" unicode="&#x7b;" d="M203 488Q203 399 136 353Q203 307 203 219L203 49Q203 7 227-19.50Q251-46 289-46L289-120Q217-120 171.50-72Q126-24 126 53L126 223Q126 262 104.50 285Q83 308 49 314L49 392Q83 398 104.50 421Q126 444 126 483L126 647Q126 724 171.50 772Q217 820 289 820L289 746Q251 746 227 720Q203 694 203 652L203 488Z"  horiz-adv-x="338" vert-adv-y="1000"  />

      
      <glyph glyph-name="uni7c" unicode="&#x7c;" d="M63 798L140 798L140-89L63-89L63 798Z"  horiz-adv-x="203" vert-adv-y="1000"  />

      
      <glyph glyph-name="uni7d" unicode="&#x7d;" d="M212 478Q212 439 233.50 416Q255 393 289 387L289 309Q255 303 233.50 280Q212 257 212 218L212 54Q212-23 166.50-71Q121-119 49-119L49-45Q87-45 111-19Q135 7 135 49L135 213Q135 302 202 348Q135 394 135 482L135 652Q135 694 111 720.50Q87 747 49 747L49 821Q121 821 166.50 773Q212 725 212 648L212 478Z"  horiz-adv-x="338" vert-adv-y="1000"  />

      
      <glyph glyph-name="uni7e" unicode="&#x7e;" d="M379 353L421 301Q381 243 323 243Q290 243 230 267Q170 291 148 291Q110 291 85 253L44 308Q85 364 141 364Q174 364 234 340Q294 316 316 316Q354 316 379 353Z"  horiz-adv-x="465" vert-adv-y="1000"  />

      
      <glyph glyph-name="unia1" unicode="&#xa1;" d="M118 537Q142 537 157 522Q172 507 172 483Q172 459 157 444Q142 429 118 429Q93 429 78.50 444Q64 459 64 483Q64 507 78.50 522Q93 537 118 537M78 370L157 370L157-180L78-180L78 370Z"  horiz-adv-x="235" vert-adv-y="1000"  />

      
      <glyph glyph-name="unia2" unicode="&#xa2;" d="M398 180Q397 99 358.50 49.50Q320 0 252-9L252-74L186-74L186-8Q121 3 85 51.50Q49 100 49 180L49 345Q49 424 85 472.50Q121 521 186 532L186 598L252 598L252 533Q320 524 358 475Q396 426 397 345L318 345Q317 402 292 430.50Q267 459 222 459Q129 459 129 345L129 180Q129 66 222 66Q318 66 319 180L398 180Z"  horiz-adv-x="430" vert-adv-y="1000"  />

      
      <glyph glyph-name="unia3" unicode="&#xa3;" d="M147 77L441 77L441 0L30 0L30 69Q95 88 95 173L95 315L29 315L29 386L95 386L95 518Q95 605 141.50 658Q188 711 263 711Q339 711 386 658Q433 605 437 513L358 513Q350 634 263 634Q222 634 198.50 604Q175 574 175 519L175 386L353 386L353 315L175 315L175 177Q175 115 147 77Z"  horiz-adv-x="475" vert-adv-y="1000"  />

      
      <glyph glyph-name="unia4" unicode="&#xa4;" d="M86 97L38 135L90 200Q69 239 69 293L69 358Q69 412 90 451L38 515L86 554L130 499Q172 533 236 533Q299 533 341 499L385 554L433 515L381 451Q402 414 402 358L402 293Q402 238 381 199L433 135L385 97L341 152Q298 117 236 117Q173 117 131 152L86 97M236 188Q279 188 303 215.50Q327 243 327 293L327 358Q327 408 303 435.50Q279 463 236 463Q192 463 168 435.50Q144 408 144 358L144 293Q144 243 168 215.50Q192 188 236 188Z"  horiz-adv-x="471" vert-adv-y="1000"  />

      
      <glyph glyph-name="unia5" unicode="&#xa5;" d="M431 700L279 295L414 295L414 239L258 239L258 178L414 178L414 122L258 122L258 0L176 0L176 122L21 122L21 178L176 178L176 239L21 239L21 295L155 295L4 700L90 700L179 449Q199 394 217 340L218 340Q238 400 256 451L345 700L431 700Z"  horiz-adv-x="435" vert-adv-y="1000"  />

      
      <glyph glyph-name="unia6" unicode="&#xa6;" d="M53 501L53 798L130 798L130 501L53 501M53-74L53 223L130 223L130-74L53-74Z"  horiz-adv-x="183" vert-adv-y="1000"  />

      
      <glyph glyph-name="unia7" unicode="&#xa7;" d="M309 213Q372 169 372 97Q372 29 327.50-12Q283-53 208-53Q128-53 80.50-5.50Q33 42 32 118L111 118Q111 74 136 48Q161 22 207 22Q248 22 270.50 42Q293 62 293 98Q293 129 266 151Q239 173 200 188.50Q161 204 122 222Q83 240 56 274Q29 308 29 356Q29 449 112 483Q47 526 47 598Q47 662 90 700Q133 738 204 738Q279 738 321 694Q363 650 365 577L288 577Q288 619 266.50 642Q245 665 205 665Q168 665 146.50 646.50Q125 628 125 598Q125 569 151.50 548Q178 527 216.50 511.50Q255 496 293 477Q331 458 357.50 422.50Q384 387 384 338Q384 252 309 213M229 260Q265 264 285 283.50Q305 303 305 331Q305 368 277.50 390.50Q250 413 198 435Q161 436 134.50 415.50Q108 395 108 359Q108 327 137.50 304Q167 281 229 260Z"  horiz-adv-x="417" vert-adv-y="1000"  />

      
      <glyph glyph-name="unia9" unicode="&#xa9;" d="M574 74Q574 74 534.50 31.50Q495-11 354-11Q213-11 133.50 74Q54 159 54 311L54 397Q54 547 133.50 630Q213 713 354 713Q495 713 574 630Q653 547 653 397L653 311Q653 159 574 74M354 45Q470 45 532 114Q594 183 594 311L594 397Q594 522 532 589.50Q470 657 354 657Q237 657 175 589.50Q113 522 113 397L113 311Q113 183 175 114Q237 45 354 45M352 147Q293 147 258 184.50Q223 222 223 288L223 414Q223 480 258 517Q293 554 352 554Q412 554 447 517Q482 480 482 414L421 414Q420 494 353 494Q285 494 285 414L285 288Q285 208 353 208Q385 208 403.50 228Q422 248 423 288L485 288Q485 222 449 184.50Q413 147 352 147Z"  horiz-adv-x="707" vert-adv-y="1000"  />

      
      <glyph glyph-name="uniab" unicode="&#xab;" d="M161 88L42 240L42 274L161 426L240 426L109 257L240 88L161 88M331 88L212 240L212 274L331 426L410 426L279 257L410 88L331 88Z"  horiz-adv-x="452" vert-adv-y="1000"  />

      
      <glyph glyph-name="uniac" unicode="&#xac;" d="M420 345L420 195L349 195L349 272L51 272L51 345L420 345Z"  horiz-adv-x="465" vert-adv-y="1000"  />

      
      <glyph glyph-name="uniae" unicode="&#xae;" d="M104 664.50Q104 664.50 127.50 688.75Q151 713 234 713Q317 713 364 664.50Q411 616 411 528L411 472Q411 381 364 331Q317 281 234 281Q151 281 104 331Q57 381 57 472L57 528Q57 616 104 664.50M378 472L378 528Q378 601 340.50 641Q303 681 234 681Q166 681 128 641Q90 601 90 528L90 472Q90 396 127.50 354.50Q165 313 234 313Q303 313 340.50 354.50Q378 396 378 472M314 545Q314 483 265 469L321 371L282 371L230 465L206 465L206 371L171 371L171 622L237 622Q274 622 294 601.50Q314 581 314 545M206 587L206 500L237 500Q279 500 279 545Q279 587 237 587L206 587Z"  horiz-adv-x="462" vert-adv-y="1000"  />

      
      <glyph glyph-name="unib0" unicode="&#xb0;" d="M65 488Q65 488 47.50 506Q30 524 30 582Q30 640 65 676Q100 712 157 712Q215 712 250 676.50Q285 641 285 582Q285 523 250 487.50Q215 452 157 452Q100 452 65 488M106.50 636.50Q106.50 636.50 96.75 626.25Q87 616 87 582Q87 548 106.50 527.50Q126 507 157 507Q189 507 208.50 527.50Q228 548 228 582Q228 616 208.50 636.50Q189 657 157 657Q126 657 106.50 636.50Z"  horiz-adv-x="315" vert-adv-y="1000"  />

      
      <glyph glyph-name="unib1" unicode="&#xb1;" d="M269 391L414 391L414 319L269 319L269 175L196 175L196 319L51 319L51 391L196 391L196 535L269 535L269 391M51 61L51 131L414 131L414 61L51 61Z"  horiz-adv-x="465" vert-adv-y="1000"  />

      
      <glyph glyph-name="unib6" unicode="&#xb6;" d="M512 701L512-93L431-93L431 626L291 626L291-93L210-93L210 386Q138 386 93.50 428.50Q49 471 49 544Q49 616 93.50 658.50Q138 701 210 701L512 701Z"  horiz-adv-x="585" vert-adv-y="1000"  />

      
      <glyph glyph-name="unib7" unicode="&#xb7;" d="M133 219Q133 219 125.50 211.50Q118 204 94 204Q70 204 55 219Q40 234 40 259Q40 283 55 298Q70 313 94 313Q118 313 133 298Q148 283 148 259Q148 234 133 219Z"  horiz-adv-x="188" vert-adv-y="1000"  />

      
      <glyph glyph-name="unibb" unicode="&#xbb;" d="M121 88L42 88L173 257L42 426L121 426L240 274L240 240L121 88M291 88L212 88L343 257L212 426L291 426L410 274L410 240L291 88Z"  horiz-adv-x="452" vert-adv-y="1000"  />

      
      <glyph glyph-name="unibf" unicode="&#xbf;" d="M166 522Q166 522 173.50 529.50Q181 537 205 537Q229 537 244 522Q259 507 259 483Q259 459 244 444Q229 429 205 429Q181 429 166 444Q151 459 151 483Q151 507 166 522M246 370L246 317Q246 269 231.50 230.50Q217 192 196 166Q175 140 154 115.50Q133 91 118.50 59Q104 27 104-11Q104-56 129.50-84Q155-112 197-112Q240-112 265.50-82.50Q291-53 292 1L370 1Q366-85 319-135Q272-185 197-185Q122-185 73.50-136.50Q25-88 25-11Q25 36 39.50 73.50Q54 111 75 137Q96 163 117.50 188Q139 213 153.50 246.50Q168 280 168 321L168 370L246 370Z"  horiz-adv-x="384" vert-adv-y="1000"  />

      
      <glyph glyph-name="unic0" unicode="&#xc0;" d="M286 769L218 769L111 888L194 888L286 769M372 0L335 152L132 152L95 0L9 0L189 700L278 700L458 0L372 0M150 228L317 228L260 465Q246 523 235 596L232 596Q221 523 207 465L150 228Z"  horiz-adv-x="467" vert-adv-y="1000"  />

      
      <glyph glyph-name="unic1" unicode="&#xc1;" d="M354 888L247 769L179 769L271 888L354 888M372 0L335 152L132 152L95 0L9 0L189 700L278 700L458 0L372 0M150 228L317 228L260 465Q246 523 235 596L232 596Q221 523 207 465L150 228Z"  horiz-adv-x="467" vert-adv-y="1000"  />

      
      <glyph glyph-name="unic2" unicode="&#xc2;" d="M233 839L179 769L114 769L196 888L269 888L350 769L286 769L233 839M372 0L335 152L132 152L95 0L9 0L189 700L278 700L458 0L372 0M150 228L317 228L260 465Q246 523 235 596L232 596Q221 523 207 465L150 228Z"  horiz-adv-x="467" vert-adv-y="1000"  />

      
      <glyph glyph-name="unic3" unicode="&#xc3;" d="M200 823Q182 823 179 795L119 795Q121 835 141 857.50Q161 880 193 880Q216 880 239 864.50Q262 849 271 849Q292 849 295 877L352 877Q348 838 328.50 815Q309 792 278 792Q256 792 232.50 807.50Q209 823 200 823M372 0L335 152L132 152L95 0L9 0L189 700L278 700L458 0L372 0M150 228L317 228L260 465Q246 523 235 596L232 596Q221 523 207 465L150 228Z"  horiz-adv-x="467" vert-adv-y="1000"  />

      
      <glyph glyph-name="unic4" unicode="&#xc4;" d="M195 797Q195 797 189 791Q183 785 163 785Q143 785 130 797Q117 809 117 829Q117 850 129.50 862Q142 874 163 874Q183 874 195 862Q207 850 207 829Q207 809 195 797M333.50 797Q333.50 797 327.25 791Q321 785 301 785Q281 785 268 797Q255 809 255 829Q255 850 267.50 862Q280 874 301 874Q321 874 333.50 862Q346 850 346 829Q346 809 333.50 797M372 0L335 152L132 152L95 0L9 0L189 700L278 700L458 0L372 0M150 228L317 228L260 465Q246 523 235 596L232 596Q221 523 207 465L150 228Z"  horiz-adv-x="467" vert-adv-y="1000"  />

      
      <glyph glyph-name="unic5" unicode="&#xc5;" d="M287.50 784.50Q287.50 784.50 277.25 774.25Q267 764 233 764Q199 764 178 784.50Q157 805 157 838Q157 870 178 890.50Q199 911 233 911Q267 911 287.50 890.50Q308 870 308 838Q308 805 287.50 784.50M255.50 860Q255.50 860 251.25 864.50Q247 869 233 869Q219 869 210 860Q201 851 201 837Q201 823 210 814.50Q219 806 233 806Q247 806 255.50 814.50Q264 823 264 837Q264 851 255.50 860M372 0L335 152L132 152L95 0L9 0L189 700L278 700L458 0L372 0M150 228L317 228L260 465Q246 523 235 596L232 596Q221 523 207 465L150 228Z"  horiz-adv-x="467" vert-adv-y="1000"  />

      
      <glyph glyph-name="unic6" unicode="&#xc6;" d="M415 77L663 77L663 0L333 0L333 167L158 167L90 0L0 0L296 700L652 700L652 624L415 624L415 393L634 393L634 318L415 318L415 77M190 243L333 243L333 610L332 610Q307 533 286 478L190 243Z"  horiz-adv-x="702" vert-adv-y="1000"  />

      
      <glyph glyph-name="unic7" unicode="&#xc7;" d="M455 196Q450 104 403.50 50.50Q357-3 277-11L266-49L279-49Q308-49 329-68Q350-87 350-118Q350-156 323.50-178.50Q297-201 254-201Q216-201 190-180Q164-159 160-123L215-123Q223-151 255-151Q273-151 284-141.50Q295-132 295-116Q295-83 258-83Q239-83 226-91L208-74L227-11Q147-3 100.50 52.50Q54 108 54 202L54 498Q54 600 107 656.50Q160 713 249 713Q340 713 392.50 659Q445 605 450 504L369 504Q360 636 248 636Q196 636 166 601Q136 566 136 498L136 202Q136 134 167 99.50Q198 65 251 65Q362 65 374 196L455 196Z"  horiz-adv-x="486" vert-adv-y="1000"  />

      
      <glyph glyph-name="unic8" unicode="&#xc8;" d="M295 769L227 769L120 888L203 888L295 769M155 77L419 77L419 0L73 0L73 700L408 700L408 624L155 624L155 393L390 393L390 318L155 318L155 77Z"  horiz-adv-x="458" vert-adv-y="1000"  />

      
      <glyph glyph-name="unic9" unicode="&#xc9;" d="M363 888L256 769L188 769L280 888L363 888M155 77L419 77L419 0L73 0L73 700L408 700L408 624L155 624L155 393L390 393L390 318L155 318L155 77Z"  horiz-adv-x="458" vert-adv-y="1000"  />

      
      <glyph glyph-name="unica" unicode="&#xca;" d="M242 839L188 769L123 769L205 888L278 888L359 769L295 769L242 839M155 77L419 77L419 0L73 0L73 700L408 700L408 624L155 624L155 393L390 393L390 318L155 318L155 77Z"  horiz-adv-x="458" vert-adv-y="1000"  />

      
      <glyph glyph-name="unicb" unicode="&#xcb;" d="M204 797Q204 797 198 791Q192 785 172 785Q152 785 139 797Q126 809 126 829Q126 850 138.50 862Q151 874 172 874Q192 874 204 862Q216 850 216 829Q216 809 204 797M342.50 797Q342.50 797 336.25 791Q330 785 310 785Q290 785 277 797Q264 809 264 829Q264 850 276.50 862Q289 874 310 874Q330 874 342.50 862Q355 850 355 829Q355 809 342.50 797M155 77L419 77L419 0L73 0L73 700L408 700L408 624L155 624L155 393L390 393L390 318L155 318L155 77Z"  horiz-adv-x="458" vert-adv-y="1000"  />

      
      <glyph glyph-name="unicc" unicode="&#xcc;" d="M170 769L102 769L-5 888L78 888L170 769M73 700L155 700L155 0L73 0L73 700Z"  horiz-adv-x="229" vert-adv-y="1000"  />

      
      <glyph glyph-name="unicd" unicode="&#xcd;" d="M63 769L155 888L238 888L131 769L63 769M73 700L155 700L155 0L73 0L73 700Z"  horiz-adv-x="229" vert-adv-y="1000"  />

      
      <glyph glyph-name="unice" unicode="&#xce;" d="M153 888L234 769L170 769L117 839L63 769L-2 769L80 888L153 888M73 0L73 700L155 700L155 0L73 0Z"  horiz-adv-x="229" vert-adv-y="1000"  />

      
      <glyph glyph-name="unicf" unicode="&#xcf;" d="M91.50 797Q91.50 797 85.25 791Q79 785 59 785Q39 785 26.50 797Q14 809 14 829Q14 850 26.50 862Q39 874 59 874Q79 874 91.50 862Q104 850 104 829Q104 809 91.50 797M183 785Q162 785 149.50 797Q137 809 137 829Q137 850 149.50 862Q162 874 183 874Q203 874 215.50 862Q228 850 228 829Q228 809 215.50 797Q203 785 183 785M78 700L160 700L160 0L78 0L78 700Z"  horiz-adv-x="241" vert-adv-y="1000"  />

      
      <glyph glyph-name="unid0" unicode="&#xd0;" d="M249 700Q351 700 407.50 646Q464 592 464 493L464 207Q464 109 407 54.50Q350 0 250 0L85 0L85 325L10 325L10 387L85 387L85 700L249 700M381 210L381 491Q381 622 252 622L167 622L167 387L259 387L259 325L167 325L167 78L252 78Q381 78 381 210Z"  horiz-adv-x="518" vert-adv-y="1000"  />

      
      <glyph glyph-name="unid1" unicode="&#xd1;" d="M242 823Q224 823 221 795L161 795Q163 835 183 857.50Q203 880 235 880Q258 880 281 864.50Q304 849 313 849Q334 849 337 877L394 877Q390 838 370.50 815Q351 792 320 792Q298 792 274.50 807.50Q251 823 242 823M393 700L474 700L474 0L391 0L219 376Q183 457 150 546L147 545Q155 421 155 330L155 0L73 0L73 700L156 700L331 318Q365 246 401 155L404 156Q393 290 393 376L393 700Z"  horiz-adv-x="548" vert-adv-y="1000"  />

      
      <glyph glyph-name="unid2" unicode="&#xd2;" d="M315 769L247 769L140 888L223 888L315 769M414 49.50Q414 49.50 386.50 18.25Q359-13 262-13Q165-13 109.50 49.50Q54 112 54 220L54 481Q54 589 109.50 651Q165 713 262 713Q359 713 414 651Q469 589 469 481L469 220Q469 112 414 49.50M262 67Q322 67 353.50 106.50Q385 146 385 220L385 481Q385 554 353.50 593.50Q322 633 262 633Q201 633 169.50 593.50Q138 554 138 481L138 220Q138 146 169.50 106.50Q201 67 262 67Z"  horiz-adv-x="523" vert-adv-y="1000"  />

      
      <glyph glyph-name="unid3" unicode="&#xd3;" d="M208 769L300 888L383 888L276 769L208 769M414 49.50Q414 49.50 386.50 18.25Q359-13 262-13Q165-13 109.50 49.50Q54 112 54 220L54 481Q54 589 109.50 651Q165 713 262 713Q359 713 414 651Q469 589 469 481L469 220Q469 112 414 49.50M262 67Q322 67 353.50 106.50Q385 146 385 220L385 481Q385 554 353.50 593.50Q322 633 262 633Q201 633 169.50 593.50Q138 554 138 481L138 220Q138 146 169.50 106.50Q201 67 262 67Z"  horiz-adv-x="523" vert-adv-y="1000"  />

      
      <glyph glyph-name="unid4" unicode="&#xd4;" d="M262 839L208 769L143 769L225 888L298 888L379 769L315 769L262 839M109.50 651Q109.50 651 137.25 682Q165 713 262 713Q359 713 414 651Q469 589 469 481L469 220Q469 112 414 49.50Q359-13 262-13Q165-13 109.50 49.50Q54 112 54 220L54 481Q54 589 109.50 651M385 220L385 481Q385 554 353.50 593.50Q322 633 262 633Q201 633 169.50 593.50Q138 554 138 481L138 220Q138 146 169.50 106.50Q201 67 262 67Q322 67 353.50 106.50Q385 146 385 220Z"  horiz-adv-x="523" vert-adv-y="1000"  />

      
      <glyph glyph-name="unid5" unicode="&#xd5;" d="M229 823Q211 823 208 795L148 795Q150 835 170 857.50Q190 880 222 880Q245 880 268 864.50Q291 849 300 849Q321 849 324 877L381 877Q377 838 357.50 815Q338 792 307 792Q285 792 261.50 807.50Q238 823 229 823M414 49.50Q414 49.50 386.50 18.25Q359-13 262-13Q165-13 109.50 49.50Q54 112 54 220L54 481Q54 589 109.50 651Q165 713 262 713Q359 713 414 651Q469 589 469 481L469 220Q469 112 414 49.50M262 67Q322 67 353.50 106.50Q385 146 385 220L385 481Q385 554 353.50 593.50Q322 633 262 633Q201 633 169.50 593.50Q138 554 138 481L138 220Q138 146 169.50 106.50Q201 67 262 67Z"  horiz-adv-x="523" vert-adv-y="1000"  />

      
      <glyph glyph-name="unid6" unicode="&#xd6;" d="M224 797Q224 797 218 791Q212 785 192 785Q172 785 159 797Q146 809 146 829Q146 850 158.50 862Q171 874 192 874Q212 874 224 862Q236 850 236 829Q236 809 224 797M362.50 797Q362.50 797 356.25 791Q350 785 330 785Q310 785 297 797Q284 809 284 829Q284 850 296.50 862Q309 874 330 874Q350 874 362.50 862Q375 850 375 829Q375 809 362.50 797M414 49.50Q414 49.50 386.50 18.25Q359-13 262-13Q165-13 109.50 49.50Q54 112 54 220L54 481Q54 589 109.50 651Q165 713 262 713Q359 713 414 651Q469 589 469 481L469 220Q469 112 414 49.50M262 67Q322 67 353.50 106.50Q385 146 385 220L385 481Q385 554 353.50 593.50Q322 633 262 633Q201 633 169.50 593.50Q138 554 138 481L138 220Q138 146 169.50 106.50Q201 67 262 67Z"  horiz-adv-x="523" vert-adv-y="1000"  />

      
      <glyph glyph-name="unid7" unicode="&#xd7;" d="M93 113L41 165L177 300L41 435L92 488L229 352L365 488L416 435L281 300L416 165L365 113L229 249L93 113Z"  horiz-adv-x="456" vert-adv-y="1000"  />

      
      <glyph glyph-name="unid8" unicode="&#xd8;" d="M395 665Q465 603 465 480L465 220Q465 112 410.50 50Q356-12 260-12Q224-12 192-3L174-62L103-62L131 29Q54 91 54 220L54 480Q54 588 109 650Q164 712 260 712Q302 712 335 700L354 762L425 762L395 665M138 220Q138 160 159 122L312 623Q291 633 260 633Q200 633 169 593Q138 553 138 480L138 220M381 220L381 480Q381 532 366 567L216 75Q234 68 260 68Q319 68 350 107.50Q381 147 381 220Z"  horiz-adv-x="519" vert-adv-y="1000"  />

      
      <glyph glyph-name="unid9" unicode="&#xd9;" d="M315 769L247 769L140 888L223 888L315 769M406 48Q406 48 379 19Q352-10 261-10Q170-10 116 48Q62 106 62 212L62 700L146 700L146 212Q146 141 176.50 105.50Q207 70 261 70Q315 70 346 105.50Q377 141 377 212L377 700L460 700L460 212Q460 106 406 48Z"  horiz-adv-x="522" vert-adv-y="1000"  />

      
      <glyph glyph-name="unida" unicode="&#xda;" d="M208 769L300 888L383 888L276 769L208 769M406 48Q406 48 379 19Q352-10 261-10Q170-10 116 48Q62 106 62 212L62 700L146 700L146 212Q146 141 176.50 105.50Q207 70 261 70Q315 70 346 105.50Q377 141 377 212L377 700L460 700L460 212Q460 106 406 48Z"  horiz-adv-x="522" vert-adv-y="1000"  />

      
      <glyph glyph-name="unidb" unicode="&#xdb;" d="M262 839L208 769L143 769L225 888L298 888L379 769L315 769L262 839M377 700L460 700L460 212Q460 106 406 48Q352-10 261-10Q170-10 116 48Q62 106 62 212L62 700L146 700L146 212Q146 141 176.50 105.50Q207 70 261 70Q315 70 346 105.50Q377 141 377 212L377 700Z"  horiz-adv-x="522" vert-adv-y="1000"  />

      
      <glyph glyph-name="unidc" unicode="&#xdc;" d="M224 797Q224 797 218 791Q212 785 192 785Q172 785 159 797Q146 809 146 829Q146 850 158.50 862Q171 874 192 874Q212 874 224 862Q236 850 236 829Q236 809 224 797M362.50 797Q362.50 797 356.25 791Q350 785 330 785Q310 785 297 797Q284 809 284 829Q284 850 296.50 862Q309 874 330 874Q350 874 362.50 862Q375 850 375 829Q375 809 362.50 797M406 48Q406 48 379 19Q352-10 261-10Q170-10 116 48Q62 106 62 212L62 700L146 700L146 212Q146 141 176.50 105.50Q207 70 261 70Q315 70 346 105.50Q377 141 377 212L377 700L460 700L460 212Q460 106 406 48Z"  horiz-adv-x="522" vert-adv-y="1000"  />

      
      <glyph glyph-name="unidd" unicode="&#xdd;" d="M164 769L256 888L339 888L232 769L164 769M176 0L176 240L4 700L90 700L179 449Q199 394 217 340L218 340Q238 400 256 451L345 700L431 700L258 240L258 0L176 0Z"  horiz-adv-x="435" vert-adv-y="1000"  />

      
      <glyph glyph-name="unide" unicode="&#xde;" d="M250 584Q350 584 404 526Q458 468 458 363Q458 255 404 197Q350 139 250 139L155 139L155 0L73 0L73 700L155 700L155 584L250 584M250 217Q375 217 375 363Q375 506 250 506L155 506L155 217L250 217Z"  horiz-adv-x="479" vert-adv-y="1000"  />

      
      <glyph glyph-name="unidf" unicode="&#xdf;" d="M338 366Q385 348 412 303.50Q439 259 439 196Q439 104 387.50 52Q336 0 247 0L192 0L192 78L241 78Q299 78 327 107Q355 136 355 198Q355 323 242 323L192 323L192 399L229 399Q330 399 330 517Q330 636 235 636Q143 636 143 510L143 0L62 0L62 510Q62 605 107.50 659Q153 713 236 713Q318 713 365 659.50Q412 606 412 516Q412 461 392 422Q372 383 338 366Z"  horiz-adv-x="471" vert-adv-y="1000"  />

      
      <glyph glyph-name="unie0" unicode="&#xe0;" d="M279 610L212 610L123 729L204 729L279 610M223 539Q302 539 345.50 491Q389 443 389 357L389 0L324 0L318 50Q278-13 198-13Q125-13 79.50 31Q34 75 34 150Q34 227 83.50 268.50Q133 310 220 310L310 310L310 356Q310 463 221 463Q182 463 157 442Q132 421 129 382L50 382Q53 454 100 496.50Q147 539 223 539M310 153L310 240L219 240Q168 240 141 216.50Q114 193 114 149Q114 106 140.50 83Q167 60 213 60Q258 60 284 85.50Q310 111 310 153Z"  horiz-adv-x="451" vert-adv-y="1000"  />

      
      <glyph glyph-name="unie1" unicode="&#xe1;" d="M322 729L233 610L166 610L241 729L322 729M223 539Q302 539 345.50 491Q389 443 389 357L389 0L324 0L318 50Q278-13 198-13Q125-13 79.50 31Q34 75 34 150Q34 227 83.50 268.50Q133 310 220 310L310 310L310 356Q310 463 221 463Q182 463 157 442Q132 421 129 382L50 382Q53 454 100 496.50Q147 539 223 539M310 153L310 240L219 240Q168 240 141 216.50Q114 193 114 149Q114 106 140.50 83Q167 60 213 60Q258 60 284 85.50Q310 111 310 153Z"  horiz-adv-x="451" vert-adv-y="1000"  />

      
      <glyph glyph-name="unie2" unicode="&#xe2;" d="M222 679L168 609L103 609L185 728L258 728L339 609L275 609L222 679M223 539Q302 539 345.50 491Q389 443 389 357L389 0L324 0L318 50Q278-13 198-13Q125-13 79.50 31Q34 75 34 150Q34 227 83.50 268.50Q133 310 220 310L310 310L310 356Q310 463 221 463Q182 463 157 442Q132 421 129 382L50 382Q53 454 100 496.50Q147 539 223 539M310 153L310 240L219 240Q168 240 141 216.50Q114 193 114 149Q114 106 140.50 83Q167 60 213 60Q258 60 284 85.50Q310 111 310 153Z"  horiz-adv-x="451" vert-adv-y="1000"  />

      
      <glyph glyph-name="unie3" unicode="&#xe3;" d="M186 652Q168 652 165 624L105 624Q107 664 127 686.50Q147 709 179 709Q202 709 225 693.50Q248 678 257 678Q278 678 281 706L338 706Q334 667 314.50 644Q295 621 264 621Q242 621 218.50 636.50Q195 652 186 652M223 539Q302 539 345.50 491Q389 443 389 357L389 0L324 0L318 50Q278-13 198-13Q125-13 79.50 31Q34 75 34 150Q34 227 83.50 268.50Q133 310 220 310L310 310L310 356Q310 463 221 463Q182 463 157 442Q132 421 129 382L50 382Q53 454 100 496.50Q147 539 223 539M310 153L310 240L219 240Q168 240 141 216.50Q114 193 114 149Q114 106 140.50 83Q167 60 213 60Q258 60 284 85.50Q310 111 310 153Z"  horiz-adv-x="451" vert-adv-y="1000"  />

      
      <glyph glyph-name="unie4" unicode="&#xe4;" d="M189.50 638Q189.50 638 183.25 632Q177 626 157 626Q137 626 124.50 638Q112 650 112 671Q112 691 124.50 703Q137 715 157 715Q177 715 189.50 703Q202 691 202 671Q202 650 189.50 638M319.50 638Q319.50 638 313.25 632Q307 626 286 626Q265 626 252.50 638Q240 650 240 671Q240 691 253 703Q266 715 286 715Q307 715 319.50 703Q332 691 332 671Q332 650 319.50 638M223 539Q302 539 345.50 491Q389 443 389 357L389 0L324 0L318 50Q278-13 198-13Q125-13 79.50 31Q34 75 34 150Q34 227 83.50 268.50Q133 310 220 310L310 310L310 356Q310 463 221 463Q182 463 157 442Q132 421 129 382L50 382Q53 454 100 496.50Q147 539 223 539M310 153L310 240L219 240Q168 240 141 216.50Q114 193 114 149Q114 106 140.50 83Q167 60 213 60Q258 60 284 85.50Q310 111 310 153Z"  horiz-adv-x="451" vert-adv-y="1000"  />

      
      <glyph glyph-name="unie5" unicode="&#xe5;" d="M276.50 626.50Q276.50 626.50 266.25 616.25Q256 606 222 606Q188 606 167 626.50Q146 647 146 680Q146 712 167 732.50Q188 753 222 753Q256 753 276.50 732.50Q297 712 297 680Q297 647 276.50 626.50M244.50 702Q244.50 702 240.25 706.50Q236 711 222 711Q208 711 199 702Q190 693 190 679Q190 665 199 656.50Q208 648 222 648Q236 648 244.50 656.50Q253 665 253 679Q253 693 244.50 702M223 539Q302 539 345.50 491Q389 443 389 357L389 0L324 0L318 50Q278-13 198-13Q125-13 79.50 31Q34 75 34 150Q34 227 83.50 268.50Q133 310 220 310L310 310L310 356Q310 463 221 463Q182 463 157 442Q132 421 129 382L50 382Q53 454 100 496.50Q147 539 223 539M310 153L310 240L219 240Q168 240 141 216.50Q114 193 114 149Q114 106 140.50 83Q167 60 213 60Q258 60 284 85.50Q310 111 310 153Z"  horiz-adv-x="451" vert-adv-y="1000"  />

      
      <glyph glyph-name="unie6" unicode="&#xe6;" d="M569 170L648 170Q646 85 599 37Q552-11 473-11Q384-11 340 57Q299-10 195-10Q123-10 78.50 34Q34 78 34 150Q34 227 83.50 266Q133 305 224 305L303 305L303 363Q303 410 282 436Q261 462 220 462Q180 462 156 441.50Q132 421 129 382L50 382Q53 454 99.50 496.50Q146 539 222 539Q304 539 345 474Q390 539 473 539Q553 539 599 488.50Q645 438 645 347L645 239L381 239L381 182Q381 66 473 66Q566 66 569 170M381 348L381 301L567 301L567 348Q567 464 473 464Q381 464 381 348M303 151L303 237L223 237Q114 237 114 149Q114 106 140 83Q166 60 213 60Q255 60 279 85Q303 110 303 151Z"  horiz-adv-x="689" vert-adv-y="1000"  />

      
      <glyph glyph-name="unie7" unicode="&#xe7;" d="M402 180Q400 96 358.50 46.50Q317-3 245-10L234-49L247-49Q276-49 297-68Q318-87 318-118Q318-156 291.50-178.50Q265-201 222-201Q184-201 158-180Q132-159 128-123L183-123Q191-151 223-151Q241-151 252-141.50Q263-132 263-116Q263-83 226-83Q207-83 194-91L176-74L195-9Q127-1 88 48.50Q49 98 49 180L49 349Q49 439 96 489Q143 539 223 539Q305 539 351.50 489.50Q398 440 401 349L321 349Q318 463 223 463Q129 463 129 349L129 180Q129 66 223 66Q319 66 323 180L402 180Z"  horiz-adv-x="435" vert-adv-y="1000"  />

      
      <glyph glyph-name="unie8" unicode="&#xe8;" d="M282 607L215 607L126 726L207 726L282 607M333 163L411 163Q405 80 356.50 34.50Q308-11 224-11Q143-11 96 40Q49 91 49 182L49 347Q49 438 96.50 488.50Q144 539 225 539Q308 539 356 488.50Q404 438 404 347L404 230L129 230L129 182Q129 66 226 66Q276 66 301 89Q326 112 333 163M226 464Q129 464 129 348L129 295L326 295L326 348Q326 464 226 464Z"  horiz-adv-x="452" vert-adv-y="1000"  />

      
      <glyph glyph-name="unie9" unicode="&#xe9;" d="M325 726L236 607L169 607L244 726L325 726M333 163L411 163Q405 80 356.50 34.50Q308-11 224-11Q143-11 96 40Q49 91 49 182L49 347Q49 438 96.50 488.50Q144 539 225 539Q308 539 356 488.50Q404 438 404 347L404 230L129 230L129 182Q129 66 226 66Q276 66 301 89Q326 112 333 163M226 464Q129 464 129 348L129 295L326 295L326 348Q326 464 226 464Z"  horiz-adv-x="452" vert-adv-y="1000"  />

      
      <glyph glyph-name="uniea" unicode="&#xea;" d="M225 676L171 606L106 606L188 725L261 725L342 606L278 606L225 676M333 163L411 163Q405 80 356.50 34.50Q308-11 224-11Q143-11 96 40Q49 91 49 182L49 347Q49 438 96.50 488.50Q144 539 225 539Q308 539 356 488.50Q404 438 404 347L404 230L129 230L129 182Q129 66 226 66Q276 66 301 89Q326 112 333 163M226 464Q129 464 129 348L129 295L326 295L326 348Q326 464 226 464Z"  horiz-adv-x="452" vert-adv-y="1000"  />

      
      <glyph glyph-name="unieb" unicode="&#xeb;" d="M192.50 635Q192.50 635 186.25 629Q180 623 160 623Q140 623 127.50 635Q115 647 115 668Q115 688 127.50 700Q140 712 160 712Q180 712 192.50 700Q205 688 205 668Q205 647 192.50 635M322.50 635Q322.50 635 316.25 629Q310 623 289 623Q268 623 255.50 635Q243 647 243 668Q243 688 256 700Q269 712 289 712Q310 712 322.50 700Q335 688 335 668Q335 647 322.50 635M333 163L411 163Q405 80 356.50 34.50Q308-11 224-11Q143-11 96 40Q49 91 49 182L49 347Q49 438 96.50 488.50Q144 539 225 539Q308 539 356 488.50Q404 438 404 347L404 230L129 230L129 182Q129 66 226 66Q276 66 301 89Q326 112 333 163M226 464Q129 464 129 348L129 295L326 295L326 348Q326 464 226 464Z"  horiz-adv-x="452" vert-adv-y="1000"  />

      
      <glyph glyph-name="uniec" unicode="&#xec;" d="M3 729L84 729L159 610L92 610L3 729M62 0L62 526L141 526L141 0L62 0Z"  horiz-adv-x="203" vert-adv-y="1000"  />

      
      <glyph glyph-name="unied" unicode="&#xed;" d="M202 729L113 610L46 610L121 729L202 729M62 0L62 526L141 526L141 0L62 0Z"  horiz-adv-x="203" vert-adv-y="1000"  />

      
      <glyph glyph-name="uniee" unicode="&#xee;" d="M152 728L230 609L167 609L116 679L65 609L2 609L79 728L152 728M76 0L76 526L155 526L155 0L76 0Z"  horiz-adv-x="231" vert-adv-y="1000"  />

      
      <glyph glyph-name="unief" unicode="&#xef;" d="M79.50 639.50Q79.50 639.50 73.75 633.75Q68 628 48 628Q28 628 16 639.50Q4 651 4 671Q4 691 16 703Q28 715 48 715Q68 715 79.50 703Q91 691 91 671Q91 651 79.50 639.50M201 639.50Q201 639.50 195 633.75Q189 628 169 628Q149 628 136.50 639.50Q124 651 124 671Q124 691 136.50 703Q149 715 169 715Q189 715 201 703Q213 691 213 671Q213 651 201 639.50M69 0L69 526L147 526L147 0L69 0Z"  horiz-adv-x="217" vert-adv-y="1000"  />

      
      <glyph glyph-name="unif0" unicode="&#xf0;" d="M335 628Q403 543 403 423L403 184Q403 91 355.50 40Q308-11 225-11Q144-11 96.50 40Q49 91 49 184L49 317Q49 409 94.50 460Q140 511 214 511Q279 511 321 471Q312 542 266 592L187 551L170 586L235 620Q197 650 142 667L168 734Q250 712 307 658L376 694L393 659L335 628M323 184L323 317Q323 376 297.50 405.50Q272 435 226 435Q129 435 129 317L129 184Q129 66 225 66Q323 66 323 184Z"  horiz-adv-x="453" vert-adv-y="1000"  />

      
      <glyph glyph-name="unif1" unicode="&#xf1;" d="M197 649Q179 649 176 621L116 621Q118 661 138 683.50Q158 706 190 706Q213 706 236 690.50Q259 675 268 675Q289 675 292 703L349 703Q345 664 325.50 641Q306 618 275 618Q253 618 229.50 633.50Q206 649 197 649M265 539Q409 539 409 333L409 0L331 0L331 327Q331 398 310.50 431Q290 464 245 464Q197 464 168.50 426.50Q140 389 140 322L140 0L62 0L62 526L121 526L131 464Q175 539 265 539Z"  horiz-adv-x="466" vert-adv-y="1000"  />

      
      <glyph glyph-name="unif2" unicode="&#xf2;" d="M131 729L212 729L287 610L220 610L131 729M362 39Q362 39 338 13.50Q314-12 230-12Q146-12 97.50 39Q49 90 49 183L49 344Q49 437 97.50 488Q146 539 230 539Q314 539 362 488Q410 437 410 344L410 183Q410 90 362 39M129 183Q129 64 230 64Q331 64 331 183L331 344Q331 462 230 462Q129 462 129 344L129 183Z"  horiz-adv-x="460" vert-adv-y="1000"  />

      
      <glyph glyph-name="unif3" unicode="&#xf3;" d="M330 729L241 610L174 610L249 729L330 729M362 39Q362 39 338 13.50Q314-12 230-12Q146-12 97.50 39Q49 90 49 183L49 344Q49 437 97.50 488Q146 539 230 539Q314 539 362 488Q410 437 410 344L410 183Q410 90 362 39M129 183Q129 64 230 64Q331 64 331 183L331 344Q331 462 230 462Q129 462 129 344L129 183Z"  horiz-adv-x="460" vert-adv-y="1000"  />

      
      <glyph glyph-name="unif4" unicode="&#xf4;" d="M230 679L176 609L111 609L193 728L266 728L347 609L283 609L230 679M97.50 488Q97.50 488 121.75 513.50Q146 539 230 539Q314 539 362 488Q410 437 410 344L410 183Q410 90 362 39Q314-12 230-12Q146-12 97.50 39Q49 90 49 183L49 344Q49 437 97.50 488M331 183L331 344Q331 462 230 462Q129 462 129 344L129 183Q129 64 230 64Q331 64 331 183Z"  horiz-adv-x="460" vert-adv-y="1000"  />

      
      <glyph glyph-name="unif5" unicode="&#xf5;" d="M194 652Q176 652 173 624L113 624Q115 664 135 686.50Q155 709 187 709Q210 709 233 693.50Q256 678 265 678Q286 678 289 706L346 706Q342 667 322.50 644Q303 621 272 621Q250 621 226.50 636.50Q203 652 194 652M362 39Q362 39 338 13.50Q314-12 230-12Q146-12 97.50 39Q49 90 49 183L49 344Q49 437 97.50 488Q146 539 230 539Q314 539 362 488Q410 437 410 344L410 183Q410 90 362 39M129 183Q129 64 230 64Q331 64 331 183L331 344Q331 462 230 462Q129 462 129 344L129 183Z"  horiz-adv-x="460" vert-adv-y="1000"  />

      
      <glyph glyph-name="unif6" unicode="&#xf6;" d="M197.50 638Q197.50 638 191.25 632Q185 626 165 626Q145 626 132.50 638Q120 650 120 671Q120 691 132.50 703Q145 715 165 715Q185 715 197.50 703Q210 691 210 671Q210 650 197.50 638M327.50 638Q327.50 638 321.25 632Q315 626 294 626Q273 626 260.50 638Q248 650 248 671Q248 691 261 703Q274 715 294 715Q315 715 327.50 703Q340 691 340 671Q340 650 327.50 638M362 39Q362 39 338 13.50Q314-12 230-12Q146-12 97.50 39Q49 90 49 183L49 344Q49 437 97.50 488Q146 539 230 539Q314 539 362 488Q410 437 410 344L410 183Q410 90 362 39M129 183Q129 64 230 64Q331 64 331 183L331 344Q331 462 230 462Q129 462 129 344L129 183Z"  horiz-adv-x="460" vert-adv-y="1000"  />

      
      <glyph glyph-name="unif7" unicode="&#xf7;" d="M263.50 417Q263.50 417 255.75 409.50Q248 402 226 402Q204 402 189 417Q174 432 174 454Q174 477 188.50 492Q203 507 226 507Q249 507 264 492Q279 477 279 454Q279 432 263.50 417M45 272L45 343L407 343L407 272L45 272M226 101Q204 101 189 115.50Q174 130 174 153Q174 176 189 190.50Q204 205 226 205Q249 205 264 190Q279 175 279 153Q279 131 264 116Q249 101 226 101Z"  horiz-adv-x="452" vert-adv-y="1000"  />

      
      <glyph glyph-name="unif8" unicode="&#xf8;" d="M355 495Q410 443 410 344L410 185Q410 92 362 40.50Q314-11 230-11Q190-11 158 1L132-64L67-64L106 33Q49 85 49 185L49 344Q49 437 97.50 488Q146 539 230 539Q272 539 303 527L329 591L394 591L355 495M129 185Q129 147 140 119L274 454Q257 462 230 462Q129 462 129 344L129 185M331 185L331 344Q331 380 320 407L187 73Q205 66 230 66Q331 66 331 185Z"  horiz-adv-x="460" vert-adv-y="1000"  />

      
      <glyph glyph-name="unif9" unicode="&#xf9;" d="M288 607L221 607L132 726L213 726L288 607M326 526L404 526L404 0L345 0L335 62Q291-13 201-13Q57-13 57 193L57 526L135 526L135 199Q135 128 155.50 95Q176 62 221 62Q269 62 297.50 99.50Q326 137 326 204L326 526Z"  horiz-adv-x="466" vert-adv-y="1000"  />

      
      <glyph glyph-name="unifa" unicode="&#xfa;" d="M331 726L242 607L175 607L250 726L331 726M326 526L404 526L404 0L345 0L335 62Q291-13 201-13Q57-13 57 193L57 526L135 526L135 199Q135 128 155.50 95Q176 62 221 62Q269 62 297.50 99.50Q326 137 326 204L326 526Z"  horiz-adv-x="466" vert-adv-y="1000"  />

      
      <glyph glyph-name="unifb" unicode="&#xfb;" d="M231 676L177 606L112 606L194 725L267 725L348 606L284 606L231 676M326 526L404 526L404 0L345 0L335 62Q291-13 201-13Q57-13 57 193L57 526L135 526L135 199Q135 128 155.50 95Q176 62 221 62Q269 62 297.50 99.50Q326 137 326 204L326 526Z"  horiz-adv-x="466" vert-adv-y="1000"  />

      
      <glyph glyph-name="unifc" unicode="&#xfc;" d="M198.50 635Q198.50 635 192.25 629Q186 623 166 623Q146 623 133.50 635Q121 647 121 668Q121 688 133.50 700Q146 712 166 712Q186 712 198.50 700Q211 688 211 668Q211 647 198.50 635M328.50 635Q328.50 635 322.25 629Q316 623 295 623Q274 623 261.50 635Q249 647 249 668Q249 688 262 700Q275 712 295 712Q316 712 328.50 700Q341 688 341 668Q341 647 328.50 635M326 526L404 526L404 0L345 0L335 62Q291-13 201-13Q57-13 57 193L57 526L135 526L135 199Q135 128 155.50 95Q176 62 221 62Q269 62 297.50 99.50Q326 137 326 204L326 526Z"  horiz-adv-x="466" vert-adv-y="1000"  />

      
      <glyph glyph-name="unifd" unicode="&#xfd;" d="M298 730L209 611L142 611L217 730L298 730M315 526L396 526L224-52Q204-120 174-155Q144-190 90-190L47-190L47-114L77-114Q106-114 121-95.50Q136-77 147-39L175 54L6 526L89 526L209 169L315 526Z"  horiz-adv-x="402" vert-adv-y="1000"  />

      
      <glyph glyph-name="unife" unicode="&#xfe;" d="M250 539Q326 539 369 487Q412 435 412 339L412 203Q412 107 369 55Q326 3 250 3Q181 3 139 53L139-180L62-180L62 721L139 721L139 489Q181 539 250 539M332 203L332 339Q332 465 236 465Q191 465 165 430.50Q139 396 139 339L139 203Q139 146 165 111.50Q191 77 236 77Q332 77 332 203Z"  horiz-adv-x="461" vert-adv-y="1000"  />

      
      <glyph glyph-name="uniff" unicode="&#xff;" d="M165.50 639Q165.50 639 159.25 633Q153 627 133 627Q113 627 100.50 639Q88 651 88 672Q88 692 100.50 704Q113 716 133 716Q153 716 165.50 704Q178 692 178 672Q178 651 165.50 639M295.50 639Q295.50 639 289.25 633Q283 627 262 627Q241 627 228.50 639Q216 651 216 672Q216 692 229 704Q242 716 262 716Q283 716 295.50 704Q308 692 308 672Q308 651 295.50 639M315 526L396 526L224-52Q204-120 174-155Q144-190 90-190L47-190L47-114L77-114Q106-114 121-95.50Q136-77 147-39L175 54L6 526L89 526L209 169L315 526Z"  horiz-adv-x="402" vert-adv-y="1000"  />

      
      <glyph glyph-name="uni0100" unicode="&#x0100;" d="M329 856L329 795L136 795L136 856L329 856M372 0L335 152L132 152L95 0L9 0L189 700L278 700L458 0L372 0M150 228L317 228L260 465Q246 523 235 596L232 596Q221 523 207 465L150 228Z"  horiz-adv-x="467" vert-adv-y="1000"  />

      
      <glyph glyph-name="uni0101" unicode="&#x0101;" d="M318 697L318 637L125 637L125 697L318 697M223 539Q302 539 345.50 491Q389 443 389 357L389 0L324 0L318 50Q278-13 198-13Q125-13 79.50 31Q34 75 34 150Q34 227 83.50 268.50Q133 310 220 310L310 310L310 356Q310 463 221 463Q182 463 157 442Q132 421 129 382L50 382Q53 454 100 496.50Q147 539 223 539M310 153L310 240L219 240Q168 240 141 216.50Q114 193 114 149Q114 106 140.50 83Q167 60 213 60Q258 60 284 85.50Q310 111 310 153Z"  horiz-adv-x="451" vert-adv-y="1000"  />

      
      <glyph glyph-name="uni0102" unicode="&#x0102;" d="M233 767Q180 767 149 798Q118 829 116 885L176 885Q181 826 232 826Q285 826 288 885L349 885Q347 829 316 798Q285 767 233 767M372 0L335 152L132 152L95 0L9 0L189 700L278 700L458 0L372 0M150 228L317 228L260 465Q246 523 235 596L232 596Q221 523 207 465L150 228Z"  horiz-adv-x="467" vert-adv-y="1000"  />

      
      <glyph glyph-name="uni0103" unicode="&#x0103;" d="M223 608Q170 608 139 639Q108 670 106 726L166 726Q171 667 222 667Q275 667 278 726L339 726Q337 670 306 639Q275 608 223 608M223 539Q302 539 345.50 491Q389 443 389 357L389 0L324 0L318 50Q278-13 198-13Q125-13 79.50 31Q34 75 34 150Q34 227 83.50 268.50Q133 310 220 310L310 310L310 356Q310 463 221 463Q182 463 157 442Q132 421 129 382L50 382Q53 454 100 496.50Q147 539 223 539M310 153L310 240L219 240Q168 240 141 216.50Q114 193 114 149Q114 106 140.50 83Q167 60 213 60Q258 60 284 85.50Q310 111 310 153Z"  horiz-adv-x="451" vert-adv-y="1000"  />

      
      <glyph glyph-name="uni0104" unicode="&#x0104;" d="M387-93Q387-126 423-126Q445-126 454-123L454-185Q434-193 403-193Q358-193 335.50-169.50Q313-146 313-111Q313-51 372 0L335 152L132 152L95 0L9 0L189 700L278 700L458 0L442 0Q418-19 402.50-46Q387-73 387-93M150 228L317 228L260 465Q246 523 235 596L232 596Q221 523 207 465L150 228Z"  horiz-adv-x="468" vert-adv-y="1000"  />

      
      <glyph glyph-name="uni0105" unicode="&#x0105;" d="M340-193Q296-193 273.50-169Q251-145 251-110Q251-52 324 0L319 49Q278-13 198-13Q125-13 79.50 31Q34 75 34 150Q34 227 83.50 268.50Q133 310 221 310L311 310L311 356Q311 463 221 463Q182 463 157 442Q132 421 129 382L50 382Q53 454 100 496.50Q147 539 223 539Q303 539 346.50 491Q390 443 390 357L390 0Q360-20 341.50-46Q323-72 323-94Q323-127 358-127Q378-127 390-123L390-185Q370-193 340-193M214 60Q259 60 285 85.50Q311 111 311 153L311 240L220 240Q169 240 141.50 216.50Q114 193 114 149Q114 106 140.50 83Q167 60 214 60Z"  horiz-adv-x="452" vert-adv-y="1000"  />

      
      <glyph glyph-name="uni0106" unicode="&#x0106;" d="M191 769L283 888L366 888L259 769L191 769M251-12Q161-12 107.50 44Q54 100 54 202L54 498Q54 600 107 656.50Q160 713 249 713Q340 713 392.50 659Q445 605 450 504L369 504Q360 636 248 636Q196 636 166 601Q136 566 136 498L136 202Q136 134 167 99.50Q198 65 251 65Q362 65 374 196L455 196Q449 96 396 42Q343-12 251-12Z"  horiz-adv-x="486" vert-adv-y="1000"  />

      
      <glyph glyph-name="uni0107" unicode="&#x0107;" d="M323 729L234 610L167 610L242 729L323 729M223-11Q143-11 96 39.50Q49 90 49 180L49 349Q49 439 96 489Q143 539 223 539Q305 539 351.50 489.50Q398 440 401 349L321 349Q318 463 223 463Q129 463 129 349L129 180Q129 66 223 66Q319 66 323 180L402 180Q400 89 352.50 39Q305-11 223-11Z"  horiz-adv-x="435" vert-adv-y="1000"  />

      
      <glyph glyph-name="uni010A" unicode="&#x010A;" d="M244 786Q219 786 204 801.50Q189 817 189 841Q189 865 204 880.50Q219 896 244 896Q268 896 283.50 880.50Q299 865 299 841Q299 817 283.50 801.50Q268 786 244 786M251-12Q161-12 107.50 44Q54 100 54 202L54 498Q54 600 107 656.50Q160 713 249 713Q340 713 392.50 659Q445 605 450 504L369 504Q360 636 248 636Q196 636 166 601Q136 566 136 498L136 202Q136 134 167 99.50Q198 65 251 65Q362 65 374 196L455 196Q449 96 396 42Q343-12 251-12Z"  horiz-adv-x="486" vert-adv-y="1000"  />

      
      <glyph glyph-name="uni010B" unicode="&#x010B;" d="M222 619Q197 619 182 634Q167 649 167 673Q167 698 182 713Q197 728 222 728Q246 728 261.50 713Q277 698 277 673Q277 650 261.50 634.50Q246 619 222 619M223-11Q143-11 96 39.50Q49 90 49 180L49 349Q49 439 96 489Q143 539 223 539Q305 539 351.50 489.50Q398 440 401 349L321 349Q318 463 223 463Q129 463 129 349L129 180Q129 66 223 66Q319 66 323 180L402 180Q400 89 352.50 39Q305-11 223-11Z"  horiz-adv-x="435" vert-adv-y="1000"  />

      
      <glyph glyph-name="uni010C" unicode="&#x010C;" d="M280 768L207 768L125 887L190 887L244 817L297 887L361 887L280 768M374 196L455 196Q449 96 396 42Q343-12 251-12Q161-12 107.50 44Q54 100 54 202L54 498Q54 600 107 656.50Q160 713 249 713Q340 713 392.50 659Q445 605 450 504L369 504Q360 636 248 636Q196 636 166 601Q136 566 136 498L136 202Q136 134 167 99.50Q198 65 251 65Q362 65 374 196Z"  horiz-adv-x="486" vert-adv-y="1000"  />

      
      <glyph glyph-name="uni010D" unicode="&#x010D;" d="M259 610L186 610L104 729L169 729L223 659L276 729L340 729L259 610M323 180L402 180Q400 89 352.50 39Q305-11 223-11Q143-11 96 39.50Q49 90 49 180L49 349Q49 439 96 489Q143 539 223 539Q305 539 351.50 489.50Q398 440 401 349L321 349Q318 463 223 463Q129 463 129 349L129 180Q129 66 223 66Q319 66 323 180Z"  horiz-adv-x="435" vert-adv-y="1000"  />

      
      <glyph glyph-name="uni010E" unicode="&#x010E;" d="M272 768L199 768L117 887L182 887L236 817L289 887L353 887L272 768M239 700Q340 700 395.50 644Q451 588 451 488L451 212Q451 112 395 56Q339 0 240 0L73 0L73 700L239 700M369 215L369 486Q369 553 336 587.50Q303 622 240 622L155 622L155 78L240 78Q302 78 335.50 112.50Q369 147 369 215Z"  horiz-adv-x="505" vert-adv-y="1000"  />

      
      <glyph glyph-name="uni010F" unicode="&#x010F;" d="M462 768L539 768L502 591L451 591L462 768M326 489L326 724L403 724L403 0L344 0L336 49Q316 21 283.50 4.50Q251-12 215-12Q140-12 94.50 41.50Q49 95 49 191L49 339Q49 435 93.50 487Q138 539 215 539Q282 539 326 489M326 190L326 339Q326 396 300 430.50Q274 465 229 465Q129 465 129 339L129 191Q129 62 229 62Q272 62 299 94.50Q326 127 326 190Z"  horiz-adv-x="511" vert-adv-y="1000"  />

      
      <glyph glyph-name="uni0110" unicode="&#x0110;" d="M249 700Q351 700 407.50 646Q464 592 464 493L464 207Q464 109 407 54.50Q350 0 250 0L85 0L85 325L10 325L10 387L85 387L85 700L249 700M381 210L381 491Q381 622 252 622L167 622L167 387L259 387L259 325L167 325L167 78L252 78Q381 78 381 210Z"  horiz-adv-x="518" vert-adv-y="1000"  />

      
      <glyph glyph-name="uni0111" unicode="&#x0111;" d="M464 659L464 608L403 608L403 0L344 0L336 49Q316 21 283.50 4.50Q251-12 215-12Q140-12 94.50 41.50Q49 95 49 191L49 339Q49 435 93.50 487Q138 539 215 539Q282 539 326 489L326 608L230 608L230 659L326 659L326 724L403 724L403 659L464 659M326 190L326 339Q326 396 300 430.50Q274 465 229 465Q129 465 129 339L129 191Q129 62 229 62Q272 62 299 94.50Q326 127 326 190Z"  horiz-adv-x="469" vert-adv-y="1000"  />

      
      <glyph glyph-name="uni0112" unicode="&#x0112;" d="M338 856L338 795L145 795L145 856L338 856M155 77L419 77L419 0L73 0L73 700L408 700L408 624L155 624L155 393L390 393L390 318L155 318L155 77Z"  horiz-adv-x="458" vert-adv-y="1000"  />

      
      <glyph glyph-name="uni0113" unicode="&#x0113;" d="M321 694L321 634L128 634L128 694L321 694M333 163L411 163Q405 80 356.50 34.50Q308-11 224-11Q143-11 96 40Q49 91 49 182L49 347Q49 438 96.50 488.50Q144 539 225 539Q308 539 356 488.50Q404 438 404 347L404 230L129 230L129 182Q129 66 226 66Q276 66 301 89Q326 112 333 163M226 464Q129 464 129 348L129 295L326 295L326 348Q326 464 226 464Z"  horiz-adv-x="452" vert-adv-y="1000"  />

      
      <glyph glyph-name="uni0116" unicode="&#x0116;" d="M241 786Q216 786 201 801.50Q186 817 186 841Q186 865 201 880.50Q216 896 241 896Q265 896 280.50 880.50Q296 865 296 841Q296 817 280.50 801.50Q265 786 241 786M155 77L419 77L419 0L73 0L73 700L408 700L408 624L155 624L155 393L390 393L390 318L155 318L155 77Z"  horiz-adv-x="458" vert-adv-y="1000"  />

      
      <glyph glyph-name="uni0117" unicode="&#x0117;" d="M224 616Q199 616 184 631Q169 646 169 670Q169 695 184 710Q199 725 224 725Q248 725 263.50 710Q279 695 279 670Q279 647 263.50 631.50Q248 616 224 616M333 163L411 163Q405 80 356.50 34.50Q308-11 224-11Q143-11 96 40Q49 91 49 182L49 347Q49 438 96.50 488.50Q144 539 225 539Q308 539 356 488.50Q404 438 404 347L404 230L129 230L129 182Q129 66 226 66Q276 66 301 89Q326 112 333 163M226 464Q129 464 129 348L129 295L326 295L326 348Q326 464 226 464Z"  horiz-adv-x="452" vert-adv-y="1000"  />

      
      <glyph glyph-name="uni0118" unicode="&#x0118;" d="M394-126Q416-126 425-123L425-185Q405-193 374-193Q330-193 307-169Q284-145 284-110Q284-52 349 0L73 0L73 700L408 700L408 624L155 624L155 393L390 393L390 318L155 318L155 77L419 77L419 0Q392-20 375-45Q358-70 358-90Q358-126 394-126Z"  horiz-adv-x="464" vert-adv-y="1000"  />

      
      <glyph glyph-name="uni0119" unicode="&#x0119;" d="M307-193Q263-193 240.50-169.50Q218-146 218-109Q218-58 266-8L266-7Q242-11 225-11Q143-11 96 40Q49 91 49 182L49 347Q49 438 96 488.50Q143 539 225 539Q307 539 355.50 488.50Q404 438 404 347L404 230L129 230L129 182Q129 66 228 66Q321 66 333 163L411 163Q407 118 394 91Q381 64 357 36Q288-40 288-86Q288-126 326-126Q350-126 359-123L359-185Q335-193 307-193M129 295L326 295L326 348Q326 464 226 464Q129 464 129 348L129 295Z"  horiz-adv-x="452" vert-adv-y="1000"  />

      
      <glyph glyph-name="uni011A" unicode="&#x011A;" d="M277 768L204 768L122 887L187 887L241 817L294 887L358 887L277 768M155 77L419 77L419 0L73 0L73 700L408 700L408 624L155 624L155 393L390 393L390 318L155 318L155 77Z"  horiz-adv-x="458" vert-adv-y="1000"  />

      
      <glyph glyph-name="uni011B" unicode="&#x011B;" d="M261 607L188 607L106 726L171 726L225 656L278 726L342 726L261 607M333 163L411 163Q405 80 356.50 34.50Q308-11 224-11Q143-11 96 40Q49 91 49 182L49 347Q49 438 96.50 488.50Q144 539 225 539Q308 539 356 488.50Q404 438 404 347L404 230L129 230L129 182Q129 66 226 66Q276 66 301 89Q326 112 333 163M226 464Q129 464 129 348L129 295L326 295L326 348Q326 464 226 464Z"  horiz-adv-x="452" vert-adv-y="1000"  />

      
      <glyph glyph-name="uni011E" unicode="&#x011E;" d="M246 767Q193 767 162 798Q131 829 129 885L189 885Q194 826 245 826Q298 826 301 885L362 885Q360 829 329 798Q298 767 246 767M255-11Q163-11 108.50 46Q54 103 54 205L54 496Q54 600 106.50 655.50Q159 711 251 711Q341 711 393.50 657.50Q446 604 450 504L369 504Q363 633 251 633Q136 633 136 495L136 205Q136 137 168 102Q200 67 255 67Q311 67 343.50 100.50Q376 134 376 198L376 304L253 304L253 377L455 377L455 198Q454 100 400 44.50Q346-11 255-11Z"  horiz-adv-x="501" vert-adv-y="1000"  />

      
      <glyph glyph-name="uni011F" unicode="&#x011F;" d="M230 608Q177 608 146 639Q115 670 113 726L173 726Q178 667 229 667Q282 667 285 726L346 726Q344 670 313 639Q282 608 230 608M345 526L405 526L405-31Q405-105 358.50-149Q312-193 233-193Q157-193 111-150.50Q65-108 61-35L138-35Q141-76 165.50-98Q190-120 233-120Q277-120 301.50-96.50Q326-73 326-31L326 60Q285 19 219 19Q142 19 95.50 70Q49 121 49 209L49 339Q49 433 95 486Q141 539 217 539Q293 539 336 479L345 526M232 93Q326 93 326 209L326 347Q326 404 300 434Q274 464 232 464Q129 464 129 339L129 209Q129 93 232 93Z"  horiz-adv-x="467" vert-adv-y="1000"  />

      
      <glyph glyph-name="uni0120" unicode="&#x0120;" d="M245 786Q220 786 205 801.50Q190 817 190 841Q190 865 205 880.50Q220 896 245 896Q269 896 284.50 880.50Q300 865 300 841Q300 817 284.50 801.50Q269 786 245 786M255-11Q163-11 108.50 46Q54 103 54 205L54 496Q54 600 106.50 655.50Q159 711 251 711Q341 711 393.50 657.50Q446 604 450 504L369 504Q363 633 251 633Q136 633 136 495L136 205Q136 137 168 102Q200 67 255 67Q311 67 343.50 100.50Q376 134 376 198L376 304L253 304L253 377L455 377L455 198Q454 100 400 44.50Q346-11 255-11Z"  horiz-adv-x="501" vert-adv-y="1000"  />

      
      <glyph glyph-name="uni0121" unicode="&#x0121;" d="M228 619Q203 619 188 634Q173 649 173 673Q173 698 188 713Q203 728 228 728Q252 728 267.50 713Q283 698 283 673Q283 650 267.50 634.50Q252 619 228 619M345 526L405 526L405-31Q405-105 358.50-149Q312-193 233-193Q157-193 111-150.50Q65-108 61-35L138-35Q141-76 165.50-98Q190-120 233-120Q277-120 301.50-96.50Q326-73 326-31L326 60Q285 19 219 19Q142 19 95.50 70Q49 121 49 209L49 339Q49 433 95 486Q141 539 217 539Q293 539 336 479L345 526M232 93Q326 93 326 209L326 347Q326 404 300 434Q274 464 232 464Q129 464 129 339L129 209Q129 93 232 93Z"  horiz-adv-x="467" vert-adv-y="1000"  />

      
      <glyph glyph-name="uni0122" unicode="&#x0122;" d="M255-11Q163-11 108.50 46Q54 103 54 205L54 496Q54 600 106.50 655.50Q159 711 251 711Q341 711 393.50 657.50Q446 604 450 504L369 504Q363 633 251 633Q136 633 136 495L136 205Q136 137 168 102Q200 67 255 67Q311 67 343.50 100.50Q376 134 376 198L376 304L253 304L253 377L455 377L455 198Q454 100 400 44.50Q346-11 255-11M192-257L210-70L287-70L247-257L192-257Z"  horiz-adv-x="501" vert-adv-y="1000"  />

      
      <glyph glyph-name="uni0123" unicode="&#x0123;" d="M272 605L190 605L172 792L225 792L272 605M345 526L405 526L405-31Q405-105 358.50-149Q312-193 233-193Q157-193 111-150.50Q65-108 61-35L138-35Q141-76 165.50-98Q190-120 233-120Q277-120 301.50-96.50Q326-73 326-31L326 60Q285 19 219 19Q142 19 95.50 70Q49 121 49 209L49 339Q49 433 95 486Q141 539 217 539Q293 539 336 479L345 526M232 93Q326 93 326 209L326 347Q326 404 300 434Q274 464 232 464Q129 464 129 339L129 209Q129 93 232 93Z"  horiz-adv-x="467" vert-adv-y="1000"  />

      
      <glyph glyph-name="uni0126" unicode="&#x0126;" d="M543 576L543 525L475 525L475 0L392 0L392 317L170 317L170 0L87 0L87 525L19 525L19 576L87 576L87 700L170 700L170 576L392 576L392 700L475 700L475 576L543 576M392 394L392 525L170 525L170 394L392 394Z"  horiz-adv-x="561" vert-adv-y="1000"  />

      
      <glyph glyph-name="uni0127" unicode="&#x0127;" d="M264 539Q408 539 408 319L408 0L329 0L329 315Q329 394 308.50 429Q288 464 244 464Q196 464 167.50 426.50Q139 389 139 322L139 0L60 0L60 607L-4 607L-4 658L60 658L60 724L139 724L139 658L234 658L234 607L139 607L139 468Q184 539 264 539Z"  horiz-adv-x="464" vert-adv-y="1000"  />

      
      <glyph glyph-name="uni012A" unicode="&#x012A;" d="M20 856L213 856L213 795L20 795L20 856M73 700L155 700L155 0L73 0L73 700Z"  horiz-adv-x="229" vert-adv-y="1000"  />

      
      <glyph glyph-name="uni012B" unicode="&#x012B;" d="M10 697L191 697L191 635L10 635L10 697M61 0L61 526L139 526L139 0L61 0Z"  horiz-adv-x="200" vert-adv-y="1000"  />

      
      <glyph glyph-name="uni012E" unicode="&#x012E;" d="M143-126Q165-126 174-123L174-185Q148-193 122-193Q75-193 51.50-168.50Q28-144 28-106Q28-49 78 0L72 0L72 700L154 700L154 0L148 0Q128-19 114.50-44.50Q101-70 101-89Q101-126 143-126Z"  horiz-adv-x="226" vert-adv-y="1000"  />

      
      <glyph glyph-name="uni012F" unicode="&#x012F;" d="M99 621Q78 621 64.50 635Q51 649 51 669Q51 690 64.50 703.50Q78 717 99 717Q119 717 133 703.50Q147 690 147 669Q147 649 133 635Q119 621 99 621M127-126Q149-126 158-123L158-185Q138-193 105-193Q60-193 37.50-169.50Q15-146 15-111Q15-53 60-1L60 523L138 523L138 0L130-1Q89-46 89-86Q89-126 127-126Z"  horiz-adv-x="200" vert-adv-y="1000"  />

      
      <glyph glyph-name="uni0130" unicode="&#x0130;" d="M116 786Q91 786 76 801.50Q61 817 61 841Q61 865 76 880.50Q91 896 116 896Q140 896 155.50 880.50Q171 865 171 841Q171 817 155.50 801.50Q140 786 116 786M73 700L155 700L155 0L73 0L73 700Z"  horiz-adv-x="229" vert-adv-y="1000"  />

      
      <glyph glyph-name="uni0131" unicode="&#x0131;" d="M62 0L62 526L141 526L141 0L62 0Z"  horiz-adv-x="203" vert-adv-y="1000"  />

      
      <glyph glyph-name="uni0136" unicode="&#x0136;" d="M252 395L492 0L397 0L203 324L155 254L155 0L73 0L73 700L155 700L155 380L207 464L365 700L464 700L252 395M198-257L216-70L293-70L253-257L198-257Z"  horiz-adv-x="492" vert-adv-y="1000"  />

      
      <glyph glyph-name="uni0137" unicode="&#x0137;" d="M238 314L435 0L343 0L185 254L140 204L140 0L62 0L62 724L140 724L140 305L314 526L409 526L238 314M175-257L193-70L270-70L230-257L175-257Z"  horiz-adv-x="433" vert-adv-y="1000"  />

      
      <glyph glyph-name="uni0139" unicode="&#x0139;" d="M315 888L208 769L140 769L232 888L315 888M155 78L399 78L399 0L73 0L73 700L155 700L155 78Z"  horiz-adv-x="407" vert-adv-y="1000"  />

      
      <glyph glyph-name="uni013A" unicode="&#x013A;" d="M49 769L141 888L224 888L117 769L49 769M63 0L63 724L141 724L141 0L63 0Z"  horiz-adv-x="206" vert-adv-y="1000"  />

      
      <glyph glyph-name="uni013B" unicode="&#x013B;" d="M155 78L399 78L399 0L73 0L73 700L155 700L155 78M156-257L174-70L251-70L211-257L156-257Z"  horiz-adv-x="407" vert-adv-y="1000"  />

      
      <glyph glyph-name="uni013C" unicode="&#x013C;" d="M63 0L63 724L141 724L141 0L63 0M58-257L76-70L153-70L113-257L58-257Z"  horiz-adv-x="203" vert-adv-y="1000"  />

      
      <glyph glyph-name="uni013D" unicode="&#x013D;" d="M155 77L383 77L383 0L73 0L73 700L155 700L155 77M343 700L307 512L256 512L265 700L343 700Z"  horiz-adv-x="395" vert-adv-y="1000"  />

      
      <glyph glyph-name="uni013E" unicode="&#x013E;" d="M189 587L200 767L277 767L240 587L189 587M63 0L63 724L141 724L141 0L63 0Z"  horiz-adv-x="249" vert-adv-y="1000"  />

      
      <glyph glyph-name="uni0141" unicode="&#x0141;" d="M184 77L415 77L415 0L102 0L102 309L23 279L23 353L102 383L102 700L184 700L184 414L311 463L311 389L184 340L184 77Z"  horiz-adv-x="422" vert-adv-y="1000"  />

      
      <glyph glyph-name="uni0142" unicode="&#x0142;" d="M234 476L234 409L161 384L161 0L82 0L82 357L13 333L13 401L82 424L82 721L161 721L161 451L234 476Z"  horiz-adv-x="246" vert-adv-y="1000"  />

      
      <glyph glyph-name="uni0143" unicode="&#x0143;" d="M221 769L313 888L396 888L289 769L221 769M393 700L474 700L474 0L391 0L219 376Q183 457 150 546L147 545Q155 421 155 330L155 0L73 0L73 700L156 700L331 318Q365 246 401 155L404 156Q393 290 393 376L393 700Z"  horiz-adv-x="548" vert-adv-y="1000"  />

      
      <glyph glyph-name="uni0144" unicode="&#x0144;" d="M333 726L244 607L177 607L252 726L333 726M265 539Q409 539 409 333L409 0L331 0L331 327Q331 398 310.50 431Q290 464 245 464Q197 464 168.50 426.50Q140 389 140 322L140 0L62 0L62 526L121 526L131 464Q175 539 265 539Z"  horiz-adv-x="466" vert-adv-y="1000"  />

      
      <glyph glyph-name="uni0145" unicode="&#x0145;" d="M393 700L474 700L474 0L391 0L219 376Q183 457 150 546L147 545Q155 421 155 330L155 0L73 0L73 700L156 700L331 318Q365 246 401 155L404 156Q393 290 393 376L393 700M220-257L238-70L315-70L275-257L220-257Z"  horiz-adv-x="548" vert-adv-y="1000"  />

      
      <glyph glyph-name="uni0146" unicode="&#x0146;" d="M265 539Q409 539 409 333L409 0L331 0L331 327Q331 398 310.50 431Q290 464 245 464Q197 464 168.50 426.50Q140 389 140 322L140 0L62 0L62 526L121 526L131 464Q175 539 265 539M182-257L200-70L277-70L237-257L182-257Z"  horiz-adv-x="466" vert-adv-y="1000"  />

      
      <glyph glyph-name="uni0147" unicode="&#x0147;" d="M310 768L237 768L155 887L220 887L274 817L327 887L391 887L310 768M393 700L474 700L474 0L391 0L219 376Q183 457 150 546L147 545Q155 421 155 330L155 0L73 0L73 700L156 700L331 318Q365 246 401 155L404 156Q393 290 393 376L393 700Z"  horiz-adv-x="548" vert-adv-y="1000"  />

      
      <glyph glyph-name="uni0148" unicode="&#x0148;" d="M269 607L196 607L114 726L179 726L233 656L286 726L350 726L269 607M265 539Q409 539 409 333L409 0L331 0L331 327Q331 398 310.50 431Q290 464 245 464Q197 464 168.50 426.50Q140 389 140 322L140 0L62 0L62 526L121 526L131 464Q175 539 265 539Z"  horiz-adv-x="466" vert-adv-y="1000"  />

      
      <glyph glyph-name="uni014A" unicode="&#x014A;" d="M393 700L474 700L474-18Q474-100 429.50-146Q385-192 298-193L298-117Q396-116 396-20L396-7L216 382Q190 440 150 546L147 545Q155 421 155 330L155 0L73 0L73 700L156 700L336 312Q371 227 403 143L406 144Q393 261 393 372L393 700Z"  horiz-adv-x="548" vert-adv-y="1000"  />

      
      <glyph glyph-name="uni014B" unicode="&#x014B;" d="M265 539Q409 539 409 333L409-28Q409-110 364-156Q319-202 232-202L232-127Q331-126 331-30L331 327Q331 398 310.50 431Q290 464 245 464Q197 464 168.50 426.50Q140 389 140 322L140 0L62 0L62 526L121 526L131 464Q175 539 265 539Z"  horiz-adv-x="466" vert-adv-y="1000"  />

      
      <glyph glyph-name="uni014C" unicode="&#x014C;" d="M165 856L358 856L358 795L165 795L165 856M414 49.50Q414 49.50 386.50 18.25Q359-13 262-13Q165-13 109.50 49.50Q54 112 54 220L54 481Q54 589 109.50 651Q165 713 262 713Q359 713 414 651Q469 589 469 481L469 220Q469 112 414 49.50M262 67Q322 67 353.50 106.50Q385 146 385 220L385 481Q385 554 353.50 593.50Q322 633 262 633Q201 633 169.50 593.50Q138 554 138 481L138 220Q138 146 169.50 106.50Q201 67 262 67Z"  horiz-adv-x="523" vert-adv-y="1000"  />

      
      <glyph glyph-name="uni014D" unicode="&#x014D;" d="M133 697L326 697L326 637L133 637L133 697M362 39Q362 39 338 13.50Q314-12 230-12Q146-12 97.50 39Q49 90 49 183L49 344Q49 437 97.50 488Q146 539 230 539Q314 539 362 488Q410 437 410 344L410 183Q410 90 362 39M129 183Q129 64 230 64Q331 64 331 183L331 344Q331 462 230 462Q129 462 129 344L129 183Z"  horiz-adv-x="460" vert-adv-y="1000"  />

      
      <glyph glyph-name="uni0150" unicode="&#x0150;" d="M302 888L217 769L156 769L226 888L302 888M417 888L328 769L267 769L342 888L417 888M414 49.50Q414 49.50 386.50 18.25Q359-13 262-13Q165-13 109.50 49.50Q54 112 54 220L54 481Q54 589 109.50 651Q165 713 262 713Q359 713 414 651Q469 589 469 481L469 220Q469 112 414 49.50M262 67Q322 67 353.50 106.50Q385 146 385 220L385 481Q385 554 353.50 593.50Q322 633 262 633Q201 633 169.50 593.50Q138 554 138 481L138 220Q138 146 169.50 106.50Q201 67 262 67Z"  horiz-adv-x="523" vert-adv-y="1000"  />

      
      <glyph glyph-name="uni0151" unicode="&#x0151;" d="M268 729L183 610L122 610L192 729L268 729M383 729L294 610L233 610L308 729L383 729M362 39Q362 39 338 13.50Q314-12 230-12Q146-12 97.50 39Q49 90 49 183L49 344Q49 437 97.50 488Q146 539 230 539Q314 539 362 488Q410 437 410 344L410 183Q410 90 362 39M129 183Q129 64 230 64Q331 64 331 183L331 344Q331 462 230 462Q129 462 129 344L129 183Z"  horiz-adv-x="460" vert-adv-y="1000"  />

      
      <glyph glyph-name="uni0152" unicode="&#x0152;" d="M468 77L731 77L731 0L386 0L386 47Q335-13 256-13Q162-13 108 49.50Q54 112 54 220L54 481Q54 589 108 651Q162 713 256 713Q337 713 386 653L386 700L721 700L721 624L468 624L468 393L703 393L703 318L468 318L468 77M385 220L385 481Q385 554 353 593.50Q321 633 260 633Q200 633 169 593.50Q138 554 138 481L138 220Q138 146 169 106.50Q200 67 260 67Q321 67 353 106.50Q385 146 385 220Z"  horiz-adv-x="770" vert-adv-y="1000"  />

      
      <glyph glyph-name="uni0153" unicode="&#x0153;" d="M596 171L675 171Q673 85 625 37Q577-11 497-11Q407-11 364 64Q318-11 227-11Q145-11 97 40Q49 91 49 184L49 341Q49 433 97 484Q145 535 227 535Q319 535 364 460Q407 535 498 535Q579 535 626 484.50Q673 434 673 343L673 234L403 234L403 182Q403 66 498 66Q593 66 596 171M403 344L403 296L595 296L595 344Q595 460 498 460Q403 460 403 344M324 184L324 341Q324 458 227 458Q129 458 129 341L129 184Q129 66 227 66Q324 66 324 184Z"  horiz-adv-x="715" vert-adv-y="1000"  />

      
      <glyph glyph-name="uni0154" unicode="&#x0154;" d="M368 888L261 769L193 769L285 888L368 888M379 0L226 264L155 264L155 0L73 0L73 700L244 700Q343 700 396 644.50Q449 589 449 488Q449 402 412.50 346.50Q376 291 310 272L472 0L379 0M155 623L155 341L243 341Q303 341 334.50 378Q366 415 366 485Q366 623 244 623L155 623Z"  horiz-adv-x="494" vert-adv-y="1000"  />

      
      <glyph glyph-name="uni0155" unicode="&#x0155;" d="M286 729L197 610L130 610L205 729L286 729M268 538Q300 538 322 531L322 451Q292 462 256 462Q203 462 171.50 425Q140 388 140 322L140 0L62 0L62 526L121 526L132 462Q176 538 268 538Z"  horiz-adv-x="336" vert-adv-y="1000"  />

      
      <glyph glyph-name="uni0156" unicode="&#x0156;" d="M310 272L472 0L379 0L226 264L155 264L155 0L73 0L73 700L244 700Q343 700 396 644.50Q449 589 449 488Q449 402 412.50 346.50Q376 291 310 272M155 623L155 341L243 341Q303 341 334.50 378Q366 415 366 485Q366 623 244 623L155 623M193-257L211-70L288-70L248-257L193-257Z"  horiz-adv-x="494" vert-adv-y="1000"  />

      
      <glyph glyph-name="uni0157" unicode="&#x0157;" d="M268 538Q300 538 322 531L322 451Q292 462 256 462Q203 462 171.50 425Q140 388 140 322L140 0L62 0L62 526L121 526L132 462Q176 538 268 538M67-257L85-70L162-70L122-257L67-257Z"  horiz-adv-x="336" vert-adv-y="1000"  />

      
      <glyph glyph-name="uni0158" unicode="&#x0158;" d="M282 768L209 768L127 887L192 887L246 817L299 887L363 887L282 768M379 0L226 264L155 264L155 0L73 0L73 700L244 700Q343 700 396 644.50Q449 589 449 488Q449 402 412.50 346.50Q376 291 310 272L472 0L379 0M155 623L155 341L243 341Q303 341 334.50 378Q366 415 366 485Q366 623 244 623L155 623Z"  horiz-adv-x="494" vert-adv-y="1000"  />

      
      <glyph glyph-name="uni0159" unicode="&#x0159;" d="M222 610L149 610L67 729L132 729L186 659L239 729L303 729L222 610M268 538Q300 538 322 531L322 451Q292 462 256 462Q203 462 171.50 425Q140 388 140 322L140 0L62 0L62 526L121 526L132 462Q176 538 268 538Z"  horiz-adv-x="336" vert-adv-y="1000"  />

      
      <glyph glyph-name="uni015A" unicode="&#x015A;" d="M177 769L269 888L352 888L245 769L177 769M229-13Q139-13 84.50 41Q30 95 29 186L112 186Q113 128 144 97Q175 66 228 66Q283 66 312 97Q341 128 341 179Q341 220 310 253.50Q279 287 234.50 312.50Q190 338 146 366Q102 394 71 438Q40 482 40 539Q40 614 91.50 663.50Q143 713 227 713Q312 713 362.50 660.50Q413 608 416 521L333 521Q331 577 303 605.50Q275 634 228 634Q179 634 151 608Q123 582 123 538Q123 503 145.50 474Q168 445 201.50 426Q235 407 274 382.50Q313 358 346.50 333.50Q380 309 402.50 268.50Q425 228 425 178Q425 99 372.50 43Q320-13 229-13Z"  horiz-adv-x="458" vert-adv-y="1000"  />

      
      <glyph glyph-name="uni015B" unicode="&#x015B;" d="M304 730L215 611L148 611L223 730L304 730M210-13Q127-13 78 35Q29 83 28 159L106 159Q107 114 133.50 88Q160 62 209 62Q252 62 276 82.50Q300 103 300 139Q300 171 272.50 192.50Q245 214 206.50 228.50Q168 243 129 260Q90 277 62.50 310.50Q35 344 35 394Q35 460 80 499.50Q125 539 200 539Q278 539 322.50 494Q367 449 369 374L292 374Q291 417 267.50 441.50Q244 466 200 466Q160 466 137 446.50Q114 427 114 393Q114 363 141.50 342.50Q169 322 207.50 308.50Q246 295 285 277.50Q324 260 351.50 225Q379 190 379 138Q379 70 333 28.50Q287-13 210-13Z"  horiz-adv-x="410" vert-adv-y="1000"  />

      
      <glyph glyph-name="uni015E" unicode="&#x015E;" d="M425 178Q425 105 379.50 51Q334-3 255-12L244-49L257-49Q286-49 307-68Q328-87 328-118Q328-156 301.50-178.50Q275-201 232-201Q194-201 168-180Q142-159 138-123L193-123Q201-151 233-151Q251-151 262-141.50Q273-132 273-116Q273-83 236-83Q217-83 204-91L186-74L204-12Q124-4 77 48.50Q30 101 29 186L112 186Q113 128 144 97Q175 66 228 66Q283 66 312 97Q341 128 341 179Q341 220 310 253.50Q279 287 234.50 312.50Q190 338 146 366Q102 394 71 438Q40 482 40 539Q40 614 91.50 663.50Q143 713 227 713Q312 713 362.50 660.50Q413 608 416 521L333 521Q331 577 303 605.50Q275 634 228 634Q179 634 151 608Q123 582 123 538Q123 503 145.50 474Q168 445 201.50 426Q235 407 274 382.50Q313 358 346.50 333.50Q380 309 402.50 268.50Q425 228 425 178Z"  horiz-adv-x="458" vert-adv-y="1000"  />

      
      <glyph glyph-name="uni015F" unicode="&#x015F;" d="M379 138Q379 74 337.50 32.50Q296-9 225-13L215-49L228-49Q257-49 278-68Q299-87 299-118Q299-156 272.50-178.50Q246-201 203-201Q165-201 139-180Q113-159 109-123L164-123Q172-151 204-151Q222-151 233-141.50Q244-132 244-116Q244-83 207-83Q188-83 175-91L157-74L176-11Q107-1 68 45Q29 91 28 159L106 159Q107 114 133.50 88Q160 62 209 62Q252 62 276 82.50Q300 103 300 139Q300 171 272.50 192.50Q245 214 206.50 228.50Q168 243 129 260Q90 277 62.50 310.50Q35 344 35 394Q35 460 80 499.50Q125 539 200 539Q278 539 322.50 494Q367 449 369 374L292 374Q291 417 267.50 441.50Q244 466 200 466Q160 466 137 446.50Q114 427 114 393Q114 363 141.50 342.50Q169 322 207.50 308.50Q246 295 285 277.50Q324 260 351.50 225Q379 190 379 138Z"  horiz-adv-x="410" vert-adv-y="1000"  />

      
      <glyph glyph-name="uni0160" unicode="&#x0160;" d="M266 768L193 768L111 887L176 887L230 817L283 887L347 887L266 768M123 538Q123 503 145.50 474Q168 445 201.50 426Q235 407 274 382.50Q313 358 346.50 333.50Q380 309 402.50 268.50Q425 228 425 178Q425 99 372.50 43Q320-13 229-13Q139-13 84.50 41Q30 95 29 186L112 186Q113 128 144 97Q175 66 228 66Q283 66 312 97Q341 128 341 179Q341 220 310 253.50Q279 287 234.50 312.50Q190 338 146 366Q102 394 71 438Q40 482 40 539Q40 614 91.50 663.50Q143 713 227 713Q312 713 362.50 660.50Q413 608 416 521L333 521Q331 577 303 605.50Q275 634 228 634Q179 634 151 608Q123 582 123 538Z"  horiz-adv-x="458" vert-adv-y="1000"  />

      
      <glyph glyph-name="uni0161" unicode="&#x0161;" d="M240 611L167 611L85 730L150 730L204 660L257 730L321 730L240 611M114 393Q114 363 141.50 342.50Q169 322 207.50 308.50Q246 295 285 277.50Q324 260 351.50 225Q379 190 379 138Q379 70 333 28.50Q287-13 210-13Q127-13 78 35Q29 83 28 159L106 159Q107 114 133.50 88Q160 62 209 62Q252 62 276 82.50Q300 103 300 139Q300 171 272.50 192.50Q245 214 206.50 228.50Q168 243 129 260Q90 277 62.50 310.50Q35 344 35 394Q35 460 80 499.50Q125 539 200 539Q278 539 322.50 494Q367 449 369 374L292 374Q291 417 267.50 441.50Q244 466 200 466Q160 466 137 446.50Q114 427 114 393Z"  horiz-adv-x="410" vert-adv-y="1000"  />

      
      <glyph glyph-name="uni0162" unicode="&#x0162;" d="M17 700L400 700L400 623L250 623L250 0L167 0L167 623L17 623L17 700M156-257L174-70L251-70L211-257L156-257Z"  horiz-adv-x="417" vert-adv-y="1000"  />

      
      <glyph glyph-name="uni0163" unicode="&#x0163;" d="M253 68L284 68L284-6L251-6Q176-6 134.50 39Q93 84 93 163L93 454L15 454L15 526L93 526L93 649L171 649L171 526L273 526L273 454L171 454L171 163Q171 68 253 68M122-257L140-70L217-70L177-257L122-257Z"  horiz-adv-x="302" vert-adv-y="1000"  />

      
      <glyph glyph-name="uni0164" unicode="&#x0164;" d="M245 768L172 768L90 887L155 887L209 817L262 887L326 887L245 768M400 700L400 623L250 623L250 0L167 0L167 623L17 623L17 700L400 700Z"  horiz-adv-x="417" vert-adv-y="1000"  />

      
      <glyph glyph-name="uni0165" unicode="&#x0165;" d="M312 768L276 591L224 591L236 768L312 768M171 163Q171 68 253 68L284 68L284-6L251-6Q176-6 134.50 39Q93 84 93 163L93 454L15 454L15 526L93 526L93 649L171 649L171 526L273 526L273 454L171 454L171 163Z"  horiz-adv-x="335" vert-adv-y="1000"  />

      
      <glyph glyph-name="uni0166" unicode="&#x0166;" d="M400 623L250 623L250 384L332 384L332 331L250 331L250 0L167 0L167 331L85 331L85 384L167 384L167 623L17 623L17 700L400 700L400 623Z"  horiz-adv-x="417" vert-adv-y="1000"  />

      
      <glyph glyph-name="uni0167" unicode="&#x0167;" d="M253 68L284 68L284-6L251-6Q176-6 134.50 39Q93 84 93 163L93 262L33 262L33 318L93 318L93 454L15 454L15 526L93 526L93 649L171 649L171 526L273 526L273 454L171 454L171 318L248 318L248 262L171 262L171 163Q171 68 253 68Z"  horiz-adv-x="307" vert-adv-y="1000"  />

      
      <glyph glyph-name="uni016A" unicode="&#x016A;" d="M165 856L358 856L358 795L165 795L165 856M406 48Q406 48 379 19Q352-10 261-10Q170-10 116 48Q62 106 62 212L62 700L146 700L146 212Q146 141 176.50 105.50Q207 70 261 70Q315 70 346 105.50Q377 141 377 212L377 700L460 700L460 212Q460 106 406 48Z"  horiz-adv-x="522" vert-adv-y="1000"  />

      
      <glyph glyph-name="uni016B" unicode="&#x016B;" d="M327 694L327 634L134 634L134 694L327 694M326 526L404 526L404 0L345 0L335 62Q291-13 201-13Q57-13 57 193L57 526L135 526L135 199Q135 128 155.50 95Q176 62 221 62Q269 62 297.50 99.50Q326 137 326 204L326 526Z"  horiz-adv-x="466" vert-adv-y="1000"  />

      
      <glyph glyph-name="uni016E" unicode="&#x016E;" d="M186 838Q186 870 207 890.50Q228 911 262 911Q296 911 316.50 890.50Q337 870 337 838Q337 805 316.50 784.50Q296 764 262 764Q228 764 207 784.50Q186 805 186 838M239 860Q239 860 234.50 855.50Q230 851 230 837Q230 823 239 814.50Q248 806 262 806Q276 806 284.50 814.50Q293 823 293 837Q293 851 284.50 860Q276 869 262 869Q248 869 239 860M406 48Q406 48 379 19Q352-10 261-10Q170-10 116 48Q62 106 62 212L62 700L146 700L146 212Q146 141 176.50 105.50Q207 70 261 70Q315 70 346 105.50Q377 141 377 212L377 700L460 700L460 212Q460 106 406 48Z"  horiz-adv-x="522" vert-adv-y="1000"  />

      
      <glyph glyph-name="uni016F" unicode="&#x016F;" d="M285.50 623.50Q285.50 623.50 275.25 613.25Q265 603 231 603Q197 603 176 623.50Q155 644 155 677Q155 709 176 729.50Q197 750 231 750Q265 750 285.50 729.50Q306 709 306 677Q306 644 285.50 623.50M253.50 699Q253.50 699 249.25 703.50Q245 708 231 708Q217 708 208 699Q199 690 199 676Q199 662 208 653.50Q217 645 231 645Q245 645 253.50 653.50Q262 662 262 676Q262 690 253.50 699M326 526L404 526L404 0L345 0L335 62Q291-13 201-13Q57-13 57 193L57 526L135 526L135 199Q135 128 155.50 95Q176 62 221 62Q269 62 297.50 99.50Q326 137 326 204L326 526Z"  horiz-adv-x="466" vert-adv-y="1000"  />

      
      <glyph glyph-name="uni0170" unicode="&#x0170;" d="M302 888L217 769L156 769L226 888L302 888M417 888L328 769L267 769L342 888L417 888M406 48Q406 48 379 19Q352-10 261-10Q170-10 116 48Q62 106 62 212L62 700L146 700L146 212Q146 141 176.50 105.50Q207 70 261 70Q315 70 346 105.50Q377 141 377 212L377 700L460 700L460 212Q460 106 406 48Z"  horiz-adv-x="522" vert-adv-y="1000"  />

      
      <glyph glyph-name="uni0171" unicode="&#x0171;" d="M269 726L184 607L123 607L193 726L269 726M295 607L234 607L309 726L384 726L295 607M326 526L404 526L404 0L345 0L335 62Q291-13 201-13Q57-13 57 193L57 526L135 526L135 199Q135 128 155.50 95Q176 62 221 62Q269 62 297.50 99.50Q326 137 326 204L326 526Z"  horiz-adv-x="466" vert-adv-y="1000"  />

      
      <glyph glyph-name="uni0172" unicode="&#x0172;" d="M325-193Q281-193 258.50-169.50Q236-146 236-110Q236-50 301 4L300 5Q282-10 257-10Q168-9 115 47.50Q62 104 62 204L62 700L146 700L146 204Q146 139 176.50 104.50Q207 70 259 70Q311 70 341.50 104.50Q372 139 372 204L372 700L456 700L456 204Q456 99 392 39Q309-44 309-90Q309-126 346-126Q368-126 377-123L377-185Q356-193 325-193Z"  horiz-adv-x="518" vert-adv-y="1000"  />

      
      <glyph glyph-name="uni0173" unicode="&#x0173;" d="M404 0Q376-21 358-47Q340-73 340-94Q340-126 377-126Q391-126 403-123L403-185Q383-193 354-193Q312-193 290.50-169.50Q269-146 269-112Q269-51 344 0L334 62Q290-12 202-12Q56-12 56 193L56 526L135 526L135 200Q135 128 155 95Q175 62 220 62Q269 62 297 99.50Q325 137 325 204L325 526L404 526L404 0Z"  horiz-adv-x="466" vert-adv-y="1000"  />

      
      <glyph glyph-name="uni0174" unicode="&#x0174;" d="M370 839L316 769L251 769L333 888L406 888L487 769L423 769L370 839M638 700L723 700L567 0L478 0L402 344Q379 446 368 567L364 567Q353 446 330 344L254 0L165 0L9 700L95 700L174 293Q201 155 207 111L211 111Q216 139 245 301L322 689L410 689L487 301Q516 139 521 111L525 111Q531 155 558 293L638 700Z"  horiz-adv-x="732" vert-adv-y="1000"  />

      
      <glyph glyph-name="uni0175" unicode="&#x0175;" d="M308 676L254 606L189 606L271 725L344 725L425 606L361 606L308 676M535 526L617 526L489 0L403 0L349 225Q320 344 313 419L310 419Q303 344 274 225L219 0L134 0L6 526L88 526L144 266Q147 253 176 92L179 92Q195 192 214 277L269 516L353 516L409 277Q432 165 444 92L447 92Q459 170 479 266L535 526Z"  horiz-adv-x="623" vert-adv-y="1000"  />

      
      <glyph glyph-name="uni0176" unicode="&#x0176;" d="M218 839L164 769L99 769L181 888L254 888L335 769L271 769L218 839M345 700L431 700L258 240L258 0L176 0L176 240L4 700L90 700L179 449Q199 394 217 340L218 340Q238 400 256 451L345 700Z"  horiz-adv-x="435" vert-adv-y="1000"  />

      
      <glyph glyph-name="uni0177" unicode="&#x0177;" d="M198 680L144 610L79 610L161 729L234 729L315 610L251 610L198 680M315 526L396 526L224-52Q204-120 174-155Q144-190 90-190L47-190L47-114L77-114Q106-114 121-95.50Q136-77 147-39L175 54L6 526L89 526L209 169L315 526Z"  horiz-adv-x="402" vert-adv-y="1000"  />

      
      <glyph glyph-name="uni0178" unicode="&#x0178;" d="M180 797Q180 797 174 791Q168 785 148 785Q128 785 115 797Q102 809 102 829Q102 850 114.50 862Q127 874 148 874Q168 874 180 862Q192 850 192 829Q192 809 180 797M318.50 797Q318.50 797 312.25 791Q306 785 286 785Q266 785 253 797Q240 809 240 829Q240 850 252.50 862Q265 874 286 874Q306 874 318.50 862Q331 850 331 829Q331 809 318.50 797M176 0L176 240L4 700L90 700L179 449Q199 394 217 340L218 340Q238 400 256 451L345 700L431 700L258 240L258 0L176 0Z"  horiz-adv-x="435" vert-adv-y="1000"  />

      
      <glyph glyph-name="uni0179" unicode="&#x0179;" d="M150 769L242 888L325 888L218 769L150 769M117 77L387 77L387 0L18 0L18 59L282 623L32 623L32 700L382 700L382 644L117 77Z"  horiz-adv-x="415" vert-adv-y="1000"  />

      
      <glyph glyph-name="uni017A" unicode="&#x017A;" d="M276 729L187 610L120 610L195 729L276 729M110 73L340 73L340 0L13 0L13 57L234 454L26 454L26 526L331 526L331 470L110 73Z"  horiz-adv-x="362" vert-adv-y="1000"  />

      
      </font>
</defs>
</svg>
