<svg width="84" height="157" viewBox="0 0 84 157" fill="none" xmlns="http://www.w3.org/2000/svg">
<path opacity="0.0809617" fill-rule="evenodd" clip-rule="evenodd" d="M83.0198 115.085C83.0198 140.025 66.2498 156.58 41.5248 156.58C16.7998 156.58 0.0297852 140.025 0.0297852 115.085V42.415C0.0297852 17.26 16.5848 0.919998 41.3098 0.919998C65.6048 0.919998 81.5148 16.83 82.1598 42.2H52.9198C52.0598 34.245 48.6198 29.3 41.3098 29.3C33.9998 29.3 29.4848 33.17 29.4848 41.985V60.905C33.7848 57.465 40.4498 55.53 46.4698 55.53C68.3998 55.53 83.0198 71.87 83.0198 93.8V115.085ZM29.4848 114.87C29.4848 123.255 33.9998 128.2 41.5248 128.2C49.0498 128.2 53.5648 123.255 53.5648 114.87V95.95C53.5648 87.35 49.2648 82.19 41.7398 82.19C33.9998 82.19 29.4848 87.35 29.4848 95.95V114.87Z" fill="#E9F1FF"/>
</svg>
