<svg width="60" height="60" fill="none" xmlns="http://www.w3.org/2000/svg"><rect width="60" height="60" rx="11" fill="url(#paint0_linear_2_141)"/><path fill-rule="evenodd" clip-rule="evenodd" d="M38.078 19a1.791 1.791 0 011.715 2.309L28.118 60h-4.407l1.178-3.905c.155-.514-.117-.936-.612-.973l-.073-.003H16.86c-.54 0-1.111.437-1.274.976L14.407 60H10l11.795-39.09A2.687 2.687 0 0124.367 19a1.791 1.791 0 011.715 2.309l-.482 1.596c-.155.514.117.936.613.973l.072.003h7.345c.541 0 1.111-.437 1.274-.976l.602-1.994A2.687 2.687 0 0138.078 19zM20.836 41.94c-.541 0-1.111.438-1.274.977l-1.915 6.345c-.162.539.144.976.685.976h7.345c.541 0 1.111-.437 1.274-.976l1.915-6.345c.162-.54-.144-.977-.685-.977h-7.345zm3.976-13.178c-.54 0-1.111.437-1.274.976l-1.914 6.345c-.163.54.144.977.684.977h7.346c.54 0 1.11-.438 1.274-.977l1.914-6.345c.163-.539-.144-.976-.685-.976h-7.345z" fill="#010F29"/><defs><linearGradient id="paint0_linear_2_141" x1="-5.281" y1="25.134" x2="27.49" y2="68.706" gradientUnits="userSpaceOnUse"><stop stop-color="#FCA82D"/><stop offset="1" stop-color="#EFC449"/></linearGradient></defs></svg>