<svg width="134" height="156" viewBox="0 0 134 156" fill="none" xmlns="http://www.w3.org/2000/svg">
<path opacity="0.0816825" fill-rule="evenodd" clip-rule="evenodd" d="M35 0H134C134 44.679 119.23 70.2334 107.683 90.2119C101.197 101.433 95.7277 110.896 94.4636 121H74.6283C73.3593 110.897 67.8784 101.436 61.3788 90.217C49.8045 70.2377 35 44.6828 35 0ZM0 14C2.65212 43.1412 20.0192 71.4377 49 81C46.8826 77.0814 44.7509 72.8717 42.7119 68.3426C21.9299 57.545 13.9307 38.172 10.8865 23.9669H30.0502C29.6367 20.7795 29.323 17.4217 29.0663 14H0ZM120 14C117.383 45.7775 106.111 64.9889 96.0196 82.1897L96.0171 82.1941L95.9342 82.3354C91.8598 89.2887 87.9179 96.0156 85.0427 103C82.161 96.0102 78.2062 89.2777 74.1186 82.3191L74.0327 82.1729C63.9189 64.9851 52.6174 45.7731 50 14H120ZM94.7386 128H74.3184C72.8791 136.309 69.8296 146.333 56 146.333V156H113V146.333C98.7571 146.333 96.1066 136.309 94.7386 128ZM79.4137 38.282L69 39.696L76.582 46.843L74.7275 57L84 52.135L93.2725 57L91.418 46.843L99 39.696L88.5863 38.282L84 29L79.4137 38.282Z" fill="white"/>
</svg>
