<svg width="134" height="156" fill="none" xmlns="http://www.w3.org/2000/svg"><path fill-rule="evenodd" clip-rule="evenodd" d="M35 0h99c0 44.679-14.77 70.233-26.317 90.212-6.486 11.221-11.955 20.684-13.22 30.788H74.629c-1.269-10.103-6.75-19.564-13.25-30.783C49.805 70.237 35 44.683 35 0zM0 14c2.652 29.141 20.02 57.438 49 67a194.704 194.704 0 01-6.288-12.657C21.93 57.545 13.93 38.172 10.886 23.967H30.05c-.413-3.188-.727-6.545-.984-9.967H0zm120 0c-2.617 31.778-13.889 50.989-23.98 68.19l-.003.004-.083.141C91.86 89.29 87.918 96.015 85.043 103c-2.882-6.99-6.837-13.722-10.924-20.68l-.086-.147C63.919 64.985 52.617 45.773 50 14h70zM94.739 128h-20.42c-1.44 8.309-4.49 18.333-18.319 18.333V156h57v-9.667c-14.243 0-16.893-10.024-18.261-18.333zM79.414 38.282L69 39.696l7.582 7.147L74.728 57 84 52.135 93.272 57l-1.854-10.157L99 39.696l-10.414-1.414L84 29l-4.586 9.282z" fill="#fff"/></svg>