<svg width="83" height="154" viewBox="0 0 83 154" fill="none" xmlns="http://www.w3.org/2000/svg">
<path opacity="0.0804967" d="M41.17 153.58C65.895 153.58 82.45 137.025 82.45 107.785V92.09C82.45 63.28 67.4 46.94 46.545 46.94C40.955 46.94 35.365 48.66 30.85 51.025V26.3H77.29V0.5H1.60998V86.93H30.42C31.925 77.685 36.01 74.675 42.675 74.675C48.91 74.675 52.78 78.33 52.78 91.66V108.215C52.78 121.33 48.48 125.2 41.17 125.2C34.075 125.2 30.42 121.545 29.775 110.15H0.10498C0.74998 137.025 16.445 153.58 41.17 153.58Z" fill="#E9F1FF"/>
</svg>
