<svg width="60" height="60" viewBox="0 0 60 60" fill="none" xmlns="http://www.w3.org/2000/svg">
<rect width="60" height="60" rx="11" fill="url(#paint0_linear_1_139)"/>
<mask id="mask0_1_139" style="mask-type:alpha" maskUnits="userSpaceOnUse" x="0" y="0" width="60" height="60">
<rect width="60" height="60" rx="11" fill="white"/>
</mask>
<g mask="url(#mask0_1_139)">
<path fill-rule="evenodd" clip-rule="evenodd" d="M38.078 19C39.279 19 40.1397 20.1588 39.7928 21.3086L28.1181 60H23.711L24.8892 56.0952C25.0445 55.5806 24.7722 55.159 24.2767 55.1217L24.2044 55.119H16.8592C16.3183 55.119 15.748 55.5561 15.5853 56.0952L14.4071 60H10L21.7948 20.9106C22.1371 19.7762 23.1821 19 24.367 19C25.568 19 26.4288 20.1588 26.0818 21.3086L25.6002 22.9048C25.4449 23.4194 25.7172 23.841 26.2127 23.8783L26.285 23.881H33.6301C34.171 23.881 34.7414 23.4439 34.9041 22.9048L35.5058 20.9106C35.8481 19.7762 36.8931 19 38.078 19ZM20.8357 41.9405C20.2948 41.9405 19.7245 42.3775 19.5618 42.9167L17.6472 49.2619C17.4845 49.801 17.7911 50.2381 18.332 50.2381H25.6772C26.218 50.2381 26.7884 49.801 26.9511 49.2619L28.8657 42.9167C29.0284 42.3775 28.7218 41.9405 28.1809 41.9405H20.8357ZM24.8122 28.7619C24.2713 28.7619 23.701 29.199 23.5383 29.7381L21.6237 36.0833C21.461 36.6225 21.7676 37.0595 22.3085 37.0595H29.6537C30.1945 37.0595 30.7649 36.6225 30.9276 36.0833L32.8422 29.7381C33.0048 29.199 32.6983 28.7619 32.1574 28.7619H24.8122Z" fill="#010F29"/>
</g>
<defs>
<linearGradient id="paint0_linear_1_139" x1="-5.28094" y1="25.1341" x2="27.4896" y2="68.7063" gradientUnits="userSpaceOnUse">
<stop stop-color="#FCA82D"/>
<stop offset="1" stop-color="#EFC449"/>
</linearGradient>
</defs>
</svg>
